G04 #@! TF.GenerationSoftware,KiCad,Pcbnew,(5.1.4-0-10_14)*
G04 #@! TF.CreationDate,2021-04-30T21:42:10-07:00*
G04 #@! TF.ProjectId,prop,70726f70-2e6b-4696-9361-645f70636258,rev?*
G04 #@! TF.SameCoordinates,Original*
G04 #@! TF.FileFunction,Legend,Top*
G04 #@! TF.FilePolarity,Positive*
%FSLAX46Y46*%
G04 Gerber Fmt 4.6, Leading zero omitted, Abs format (unit mm)*
G04 Created by KiCad (PCBNEW (5.1.4-0-10_14)) date 2021-04-30 21:42:10*
%MOMM*%
%LPD*%
G04 APERTURE LIST*
%ADD10C,0.120000*%
%ADD11C,0.150000*%
%ADD12C,0.127000*%
%ADD13C,0.100000*%
%ADD14C,0.200000*%
%ADD15C,0.254000*%
%ADD16C,0.015000*%
G04 APERTURE END LIST*
D10*
X170875000Y-103043000D02*
X170275000Y-102743000D01*
X170875000Y-102443000D02*
X170875000Y-103043000D01*
X170275000Y-102743000D02*
X170875000Y-102443000D01*
X167975000Y-100633000D02*
X167975000Y-99353000D01*
X168575000Y-100633000D02*
X168575000Y-99353000D01*
X165465000Y-116753000D02*
X168275000Y-116753000D01*
X165465000Y-103733000D02*
X165465000Y-116753000D01*
X166275000Y-103733000D02*
X165465000Y-103733000D01*
X171085000Y-116753000D02*
X168275000Y-116753000D01*
X171085000Y-103733000D02*
X171085000Y-116753000D01*
X170275000Y-103733000D02*
X171085000Y-103733000D01*
D11*
X42291000Y-114173000D02*
G75*
G03X42291000Y-114173000I-3810000J0D01*
G01*
X98171000Y-114173000D02*
G75*
G03X98171000Y-114173000I-3810000J0D01*
G01*
X98171000Y-58293000D02*
G75*
G03X98171000Y-58293000I-3810000J0D01*
G01*
X42291000Y-58293000D02*
G75*
G03X42291000Y-58293000I-3810000J0D01*
G01*
D12*
X93122700Y-62576400D02*
X98139300Y-62576400D01*
D11*
X98139300Y-103889600D02*
X93122700Y-103889600D01*
X93122700Y-103889600D02*
X93122700Y-62576400D01*
D12*
X39719300Y-106889600D02*
X34671000Y-106889600D01*
X34671000Y-65576400D02*
X39719300Y-65576400D01*
X39719300Y-65576400D02*
X39719300Y-106889600D01*
D13*
G36*
X52171000Y-117233000D02*
G01*
X46171000Y-117233000D01*
X46171000Y-116233000D01*
X52171000Y-116233000D01*
X52171000Y-117233000D01*
G37*
X52171000Y-117233000D02*
X46171000Y-117233000D01*
X46171000Y-116233000D01*
X52171000Y-116233000D01*
X52171000Y-117233000D01*
D11*
X209296000Y-114554000D02*
G75*
G03X209296000Y-114554000I-3810000J0D01*
G01*
X265176000Y-114554000D02*
G75*
G03X265176000Y-114554000I-3810000J0D01*
G01*
X265176000Y-58674000D02*
G75*
G03X265176000Y-58674000I-3810000J0D01*
G01*
X209296000Y-58674000D02*
G75*
G03X209296000Y-58674000I-3810000J0D01*
G01*
D12*
X260127700Y-62957400D02*
X265144300Y-62957400D01*
D11*
X265144300Y-104270600D02*
X260127700Y-104270600D01*
X260127700Y-104270600D02*
X260127700Y-62957400D01*
D12*
X206724300Y-107270600D02*
X201676000Y-107270600D01*
X201676000Y-65957400D02*
X206724300Y-65957400D01*
X206724300Y-65957400D02*
X206724300Y-107270600D01*
D13*
G36*
X219176000Y-117614000D02*
G01*
X213176000Y-117614000D01*
X213176000Y-116614000D01*
X219176000Y-116614000D01*
X219176000Y-117614000D01*
G37*
X219176000Y-117614000D02*
X213176000Y-117614000D01*
X213176000Y-116614000D01*
X219176000Y-116614000D01*
X219176000Y-117614000D01*
D10*
X229872000Y-88072279D02*
X229872000Y-87746721D01*
X228852000Y-88072279D02*
X228852000Y-87746721D01*
X53215000Y-100929221D02*
X53215000Y-101254779D01*
X52195000Y-100929221D02*
X52195000Y-101254779D01*
X68324000Y-95442721D02*
X68324000Y-95768279D01*
X69344000Y-95442721D02*
X69344000Y-95768279D01*
X86362000Y-100954721D02*
X86362000Y-101280279D01*
X85342000Y-100954721D02*
X85342000Y-101280279D01*
X216410000Y-88072279D02*
X216410000Y-87746721D01*
X215390000Y-88072279D02*
X215390000Y-87746721D01*
X245108000Y-88072279D02*
X245108000Y-87746721D01*
X246128000Y-88072279D02*
X246128000Y-87746721D01*
X81290279Y-80008000D02*
X80964721Y-80008000D01*
X81290279Y-81028000D02*
X80964721Y-81028000D01*
X65034279Y-81155000D02*
X64708721Y-81155000D01*
X65034279Y-80135000D02*
X64708721Y-80135000D01*
X43944000Y-70292279D02*
X43944000Y-69966721D01*
X42924000Y-70292279D02*
X42924000Y-69966721D01*
X248283000Y-88072279D02*
X248283000Y-87746721D01*
X249303000Y-88072279D02*
X249303000Y-87746721D01*
X236222000Y-87945279D02*
X236222000Y-87619721D01*
X235202000Y-87945279D02*
X235202000Y-87619721D01*
X219458000Y-87746721D02*
X219458000Y-88072279D01*
X218438000Y-87746721D02*
X218438000Y-88072279D01*
X233047000Y-88072279D02*
X233047000Y-87746721D01*
X232027000Y-88072279D02*
X232027000Y-87746721D01*
X71499000Y-101280279D02*
X71499000Y-100954721D01*
X72519000Y-101280279D02*
X72519000Y-100954721D01*
X144782000Y-81925279D02*
X144782000Y-81599721D01*
X143762000Y-81925279D02*
X143762000Y-81599721D01*
X55370000Y-101356279D02*
X55370000Y-101030721D01*
X56390000Y-101356279D02*
X56390000Y-101030721D01*
X251458000Y-87746721D02*
X251458000Y-88072279D01*
X252478000Y-87746721D02*
X252478000Y-88072279D01*
X76265721Y-76833000D02*
X76591279Y-76833000D01*
X76265721Y-77853000D02*
X76591279Y-77853000D01*
X68324000Y-100954721D02*
X68324000Y-101280279D01*
X69344000Y-100954721D02*
X69344000Y-101280279D01*
X85342000Y-95819279D02*
X85342000Y-95493721D01*
X86362000Y-95819279D02*
X86362000Y-95493721D01*
X76265721Y-81028000D02*
X76591279Y-81028000D01*
X76265721Y-80008000D02*
X76591279Y-80008000D01*
X60009721Y-76706000D02*
X60335279Y-76706000D01*
X60009721Y-77726000D02*
X60335279Y-77726000D01*
X140083000Y-81925279D02*
X140083000Y-81599721D01*
X139063000Y-81925279D02*
X139063000Y-81599721D01*
X53088000Y-95468221D02*
X53088000Y-95793779D01*
X52068000Y-95468221D02*
X52068000Y-95793779D01*
X89025000Y-100954721D02*
X89025000Y-101280279D01*
X90045000Y-100954721D02*
X90045000Y-101280279D01*
X60136721Y-80135000D02*
X60462279Y-80135000D01*
X60136721Y-81155000D02*
X60462279Y-81155000D01*
D11*
X76805000Y-85555000D02*
X76805000Y-84180000D01*
X66680000Y-85555000D02*
X66680000Y-89705000D01*
X76830000Y-85555000D02*
X76830000Y-89705000D01*
X66680000Y-85555000D02*
X66785000Y-85555000D01*
X66680000Y-89705000D02*
X66785000Y-89705000D01*
X76830000Y-89705000D02*
X76725000Y-89705000D01*
X76830000Y-85555000D02*
X76805000Y-85555000D01*
X236136000Y-106294000D02*
X236136000Y-106269000D01*
X231986000Y-106294000D02*
X231986000Y-106189000D01*
X231986000Y-96144000D02*
X231986000Y-96249000D01*
X236136000Y-96144000D02*
X236136000Y-96249000D01*
X236136000Y-106294000D02*
X231986000Y-106294000D01*
X236136000Y-96144000D02*
X231986000Y-96144000D01*
X236136000Y-106269000D02*
X237511000Y-106269000D01*
X76665000Y-69103000D02*
X75265000Y-69103000D01*
X76665000Y-74203000D02*
X80815000Y-74203000D01*
X76665000Y-69053000D02*
X80815000Y-69053000D01*
X76665000Y-74203000D02*
X76665000Y-74058000D01*
X80815000Y-74203000D02*
X80815000Y-74058000D01*
X80815000Y-69053000D02*
X80815000Y-69198000D01*
X76665000Y-69053000D02*
X76665000Y-69103000D01*
X60282000Y-68799000D02*
X60282000Y-68849000D01*
X64432000Y-68799000D02*
X64432000Y-68944000D01*
X64432000Y-73949000D02*
X64432000Y-73804000D01*
X60282000Y-73949000D02*
X60282000Y-73804000D01*
X60282000Y-68799000D02*
X64432000Y-68799000D01*
X60282000Y-73949000D02*
X64432000Y-73949000D01*
X60282000Y-68849000D02*
X58882000Y-68849000D01*
X252265000Y-79233000D02*
X253665000Y-79233000D01*
X252265000Y-74133000D02*
X248115000Y-74133000D01*
X252265000Y-79283000D02*
X248115000Y-79283000D01*
X252265000Y-74133000D02*
X252265000Y-74278000D01*
X248115000Y-74133000D02*
X248115000Y-74278000D01*
X248115000Y-79283000D02*
X248115000Y-79138000D01*
X252265000Y-79283000D02*
X252265000Y-79233000D01*
X236136000Y-79283000D02*
X236136000Y-79233000D01*
X231986000Y-79283000D02*
X231986000Y-79138000D01*
X231986000Y-74133000D02*
X231986000Y-74278000D01*
X236136000Y-74133000D02*
X236136000Y-74278000D01*
X236136000Y-79283000D02*
X231986000Y-79283000D01*
X236136000Y-74133000D02*
X231986000Y-74133000D01*
X236136000Y-79233000D02*
X237536000Y-79233000D01*
X64432000Y-102474000D02*
X65832000Y-102474000D01*
X64432000Y-97374000D02*
X60282000Y-97374000D01*
X64432000Y-102524000D02*
X60282000Y-102524000D01*
X64432000Y-97374000D02*
X64432000Y-97519000D01*
X60282000Y-97374000D02*
X60282000Y-97519000D01*
X60282000Y-102524000D02*
X60282000Y-102379000D01*
X64432000Y-102524000D02*
X64432000Y-102474000D01*
X76665000Y-97374000D02*
X76665000Y-97424000D01*
X80815000Y-97374000D02*
X80815000Y-97519000D01*
X80815000Y-102524000D02*
X80815000Y-102379000D01*
X76665000Y-102524000D02*
X76665000Y-102379000D01*
X76665000Y-97374000D02*
X80815000Y-97374000D01*
X76665000Y-102524000D02*
X80815000Y-102524000D01*
X76665000Y-97424000D02*
X75265000Y-97424000D01*
X219372000Y-79106000D02*
X220772000Y-79106000D01*
X219372000Y-74006000D02*
X215222000Y-74006000D01*
X219372000Y-79156000D02*
X215222000Y-79156000D01*
X219372000Y-74006000D02*
X219372000Y-74151000D01*
X215222000Y-74006000D02*
X215222000Y-74151000D01*
X215222000Y-79156000D02*
X215222000Y-79011000D01*
X219372000Y-79156000D02*
X219372000Y-79106000D01*
X43899000Y-97501000D02*
X43899000Y-97551000D01*
X48049000Y-97501000D02*
X48049000Y-97646000D01*
X48049000Y-102651000D02*
X48049000Y-102506000D01*
X43899000Y-102651000D02*
X43899000Y-102506000D01*
X43899000Y-97501000D02*
X48049000Y-97501000D01*
X43899000Y-102651000D02*
X48049000Y-102651000D01*
X43899000Y-97551000D02*
X42499000Y-97551000D01*
D10*
X254379000Y-87746721D02*
X254379000Y-88072279D01*
X255399000Y-87746721D02*
X255399000Y-88072279D01*
X247965279Y-83060000D02*
X247639721Y-83060000D01*
X247965279Y-82040000D02*
X247639721Y-82040000D01*
X252287721Y-83060000D02*
X252613279Y-83060000D01*
X252287721Y-82040000D02*
X252613279Y-82040000D01*
X69852000Y-69839721D02*
X69852000Y-70165279D01*
X68832000Y-69839721D02*
X68832000Y-70165279D01*
X85342000Y-70322221D02*
X85342000Y-70647779D01*
X86362000Y-70322221D02*
X86362000Y-70647779D01*
X56390000Y-95442721D02*
X56390000Y-95768279D01*
X55370000Y-95442721D02*
X55370000Y-95768279D01*
X71524500Y-95468221D02*
X71524500Y-95793779D01*
X72544500Y-95468221D02*
X72544500Y-95793779D01*
X76265721Y-94359000D02*
X76591279Y-94359000D01*
X76265721Y-95379000D02*
X76591279Y-95379000D01*
X64581721Y-77726000D02*
X64907279Y-77726000D01*
X64581721Y-76706000D02*
X64907279Y-76706000D01*
X68832000Y-74991279D02*
X68832000Y-74665721D01*
X69852000Y-74991279D02*
X69852000Y-74665721D01*
X81290279Y-76706000D02*
X80964721Y-76706000D01*
X81290279Y-77726000D02*
X80964721Y-77726000D01*
X238123000Y-87945279D02*
X238123000Y-87619721D01*
X239143000Y-87945279D02*
X239143000Y-87619721D01*
X221486000Y-87695721D02*
X221486000Y-88021279D01*
X222506000Y-87695721D02*
X222506000Y-88021279D01*
X90045000Y-95493721D02*
X90045000Y-95819279D01*
X89025000Y-95493721D02*
X89025000Y-95819279D01*
X48071721Y-95379000D02*
X48397279Y-95379000D01*
X48071721Y-94359000D02*
X48397279Y-94359000D01*
X59882721Y-94359000D02*
X60208279Y-94359000D01*
X59882721Y-95379000D02*
X60208279Y-95379000D01*
X64454721Y-95379000D02*
X64780279Y-95379000D01*
X64454721Y-94359000D02*
X64780279Y-94359000D01*
X81188779Y-95379000D02*
X80863221Y-95379000D01*
X81188779Y-94359000D02*
X80863221Y-94359000D01*
X219720279Y-82167000D02*
X219394721Y-82167000D01*
X219720279Y-83187000D02*
X219394721Y-83187000D01*
X215148279Y-83187000D02*
X214822721Y-83187000D01*
X215148279Y-82167000D02*
X214822721Y-82167000D01*
X85342000Y-74792721D02*
X85342000Y-75118279D01*
X86362000Y-74792721D02*
X86362000Y-75118279D01*
X133923721Y-82040000D02*
X134249279Y-82040000D01*
X133923721Y-83060000D02*
X134249279Y-83060000D01*
X129220279Y-82040000D02*
X128894721Y-82040000D01*
X129220279Y-83060000D02*
X128894721Y-83060000D01*
X231912279Y-83187000D02*
X231586721Y-83187000D01*
X231912279Y-82167000D02*
X231586721Y-82167000D01*
X236158721Y-83187000D02*
X236484279Y-83187000D01*
X236158721Y-82167000D02*
X236484279Y-82167000D01*
X43499721Y-94359000D02*
X43825279Y-94359000D01*
X43499721Y-95379000D02*
X43825279Y-95379000D01*
D13*
G36*
X136372000Y-116852000D02*
G01*
X130372000Y-116852000D01*
X130372000Y-115852000D01*
X136372000Y-115852000D01*
X136372000Y-116852000D01*
G37*
X136372000Y-116852000D02*
X130372000Y-116852000D01*
X130372000Y-115852000D01*
X136372000Y-115852000D01*
X136372000Y-116852000D01*
D12*
X123920300Y-65195400D02*
X123920300Y-106508600D01*
X118872000Y-65195400D02*
X123920300Y-65195400D01*
X123920300Y-106508600D02*
X118872000Y-106508600D01*
D11*
X177323700Y-103508600D02*
X177323700Y-62195400D01*
X182340300Y-103508600D02*
X177323700Y-103508600D01*
D12*
X177323700Y-62195400D02*
X182340300Y-62195400D01*
D11*
X126492000Y-57912000D02*
G75*
G03X126492000Y-57912000I-3810000J0D01*
G01*
X182372000Y-57912000D02*
G75*
G03X182372000Y-57912000I-3810000J0D01*
G01*
X182372000Y-113792000D02*
G75*
G03X182372000Y-113792000I-3810000J0D01*
G01*
X126492000Y-113792000D02*
G75*
G03X126492000Y-113792000I-3810000J0D01*
G01*
D12*
X174501000Y-66833000D02*
X159001000Y-66833000D01*
X159001000Y-66833000D02*
X159001000Y-54833000D01*
X159001000Y-54833000D02*
X174501000Y-54833000D01*
X174501000Y-54833000D02*
X174501000Y-66833000D01*
D14*
X175351000Y-59533000D02*
G75*
G03X175351000Y-59533000I-100000J0D01*
G01*
X225857000Y-60295000D02*
G75*
G03X225857000Y-60295000I-100000J0D01*
G01*
D12*
X225007000Y-55595000D02*
X225007000Y-67595000D01*
X209507000Y-55595000D02*
X225007000Y-55595000D01*
X209507000Y-67595000D02*
X209507000Y-55595000D01*
X225007000Y-67595000D02*
X209507000Y-67595000D01*
X142116000Y-66833000D02*
X126616000Y-66833000D01*
X126616000Y-66833000D02*
X126616000Y-54833000D01*
X126616000Y-54833000D02*
X142116000Y-54833000D01*
X142116000Y-54833000D02*
X142116000Y-66833000D01*
D14*
X142966000Y-59533000D02*
G75*
G03X142966000Y-59533000I-100000J0D01*
G01*
X126347000Y-112171000D02*
G75*
G03X126347000Y-112171000I-100000J0D01*
G01*
D12*
X126997000Y-116871000D02*
X126997000Y-104871000D01*
X142497000Y-116871000D02*
X126997000Y-116871000D01*
X142497000Y-104871000D02*
X142497000Y-116871000D01*
X126997000Y-104871000D02*
X142497000Y-104871000D01*
X143253000Y-104871000D02*
X158753000Y-104871000D01*
X158753000Y-104871000D02*
X158753000Y-116871000D01*
X158753000Y-116871000D02*
X143253000Y-116871000D01*
X143253000Y-116871000D02*
X143253000Y-104871000D01*
D14*
X142603000Y-112171000D02*
G75*
G03X142603000Y-112171000I-100000J0D01*
G01*
X258155000Y-60295000D02*
G75*
G03X258155000Y-60295000I-100000J0D01*
G01*
D12*
X257305000Y-55595000D02*
X257305000Y-67595000D01*
X241805000Y-55595000D02*
X257305000Y-55595000D01*
X241805000Y-67595000D02*
X241805000Y-55595000D01*
X257305000Y-67595000D02*
X241805000Y-67595000D01*
X241176000Y-67595000D02*
X225676000Y-67595000D01*
X225676000Y-67595000D02*
X225676000Y-55595000D01*
X225676000Y-55595000D02*
X241176000Y-55595000D01*
X241176000Y-55595000D02*
X241176000Y-67595000D01*
D14*
X242026000Y-60295000D02*
G75*
G03X242026000Y-60295000I-100000J0D01*
G01*
D12*
X155712000Y-84682000D02*
X156962000Y-84682000D01*
X155712000Y-87022000D02*
X156962000Y-87022000D01*
D14*
X154337000Y-85050000D02*
G75*
G03X154337000Y-85050000I-100000J0D01*
G01*
X149762000Y-93481000D02*
G75*
G03X149762000Y-93481000I-100000J0D01*
G01*
D12*
X152417000Y-93401000D02*
X157717000Y-93401000D01*
X152417000Y-101671000D02*
X157717000Y-101671000D01*
D15*
X128271000Y-88480000D02*
X144271000Y-88480000D01*
X144271000Y-88480000D02*
X144271000Y-92480000D01*
X144271000Y-95480000D02*
X144271000Y-99480000D01*
X144271000Y-99480000D02*
X128271000Y-99480000D01*
X128271000Y-88480000D02*
X128271000Y-92480000D01*
X128271000Y-95480000D02*
X128271000Y-99480000D01*
D13*
X129525000Y-101180000D02*
G75*
G03X129525000Y-101180000I-254000J0D01*
G01*
D14*
X45820000Y-68879000D02*
G75*
G03X45820000Y-68879000I-100000J0D01*
G01*
D12*
X48165000Y-68854000D02*
X52165000Y-68854000D01*
X48165000Y-73894000D02*
X52165000Y-73894000D01*
X58042000Y-67087000D02*
X42542000Y-67087000D01*
X42542000Y-67087000D02*
X42542000Y-55087000D01*
X42542000Y-55087000D02*
X58042000Y-55087000D01*
X58042000Y-55087000D02*
X58042000Y-67087000D01*
D14*
X58892000Y-59787000D02*
G75*
G03X58892000Y-59787000I-100000J0D01*
G01*
X75021000Y-59787000D02*
G75*
G03X75021000Y-59787000I-100000J0D01*
G01*
D12*
X74171000Y-55087000D02*
X74171000Y-67087000D01*
X58671000Y-55087000D02*
X74171000Y-55087000D01*
X58671000Y-67087000D02*
X58671000Y-55087000D01*
X74171000Y-67087000D02*
X58671000Y-67087000D01*
X90300000Y-67087000D02*
X74800000Y-67087000D01*
X74800000Y-67087000D02*
X74800000Y-55087000D01*
X74800000Y-55087000D02*
X90300000Y-55087000D01*
X90300000Y-55087000D02*
X90300000Y-67087000D01*
D14*
X91150000Y-59787000D02*
G75*
G03X91150000Y-59787000I-100000J0D01*
G01*
X159222000Y-59533000D02*
G75*
G03X159222000Y-59533000I-100000J0D01*
G01*
D12*
X158372000Y-54833000D02*
X158372000Y-66833000D01*
X142872000Y-54833000D02*
X158372000Y-54833000D01*
X142872000Y-66833000D02*
X142872000Y-54833000D01*
X158372000Y-66833000D02*
X142872000Y-66833000D01*
D14*
X74277000Y-112552000D02*
G75*
G03X74277000Y-112552000I-100000J0D01*
G01*
D12*
X74927000Y-117252000D02*
X74927000Y-105252000D01*
X90427000Y-117252000D02*
X74927000Y-117252000D01*
X90427000Y-105252000D02*
X90427000Y-117252000D01*
X74927000Y-105252000D02*
X90427000Y-105252000D01*
X58798000Y-105252000D02*
X74298000Y-105252000D01*
X74298000Y-105252000D02*
X74298000Y-117252000D01*
X74298000Y-117252000D02*
X58798000Y-117252000D01*
X58798000Y-117252000D02*
X58798000Y-105252000D01*
D14*
X58148000Y-112552000D02*
G75*
G03X58148000Y-112552000I-100000J0D01*
G01*
X42019000Y-112552000D02*
G75*
G03X42019000Y-112552000I-100000J0D01*
G01*
D12*
X42669000Y-117252000D02*
X42669000Y-105252000D01*
X58169000Y-117252000D02*
X42669000Y-117252000D01*
X58169000Y-105252000D02*
X58169000Y-117252000D01*
X42669000Y-105252000D02*
X58169000Y-105252000D01*
D10*
X148528721Y-71626000D02*
X148854279Y-71626000D01*
X148528721Y-72646000D02*
X148854279Y-72646000D01*
X42924000Y-77688221D02*
X42924000Y-78013779D01*
X43944000Y-77688221D02*
X43944000Y-78013779D01*
X212215000Y-88072279D02*
X212215000Y-87746721D01*
X213235000Y-88072279D02*
X213235000Y-87746721D01*
D14*
X153053000Y-79440000D02*
G75*
G03X153053000Y-79440000I-100000J0D01*
G01*
D12*
X152928000Y-76995000D02*
X152928000Y-72995000D01*
X157968000Y-76995000D02*
X157968000Y-72995000D01*
X48165000Y-81514000D02*
X52165000Y-81514000D01*
X48165000Y-76474000D02*
X52165000Y-76474000D01*
D14*
X45820000Y-76499000D02*
G75*
G03X45820000Y-76499000I-100000J0D01*
G01*
D11*
X167941666Y-117295380D02*
X167941666Y-118009666D01*
X167894047Y-118152523D01*
X167798809Y-118247761D01*
X167655952Y-118295380D01*
X167560714Y-118295380D01*
X168894047Y-117295380D02*
X168417857Y-117295380D01*
X168370238Y-117771571D01*
X168417857Y-117723952D01*
X168513095Y-117676333D01*
X168751190Y-117676333D01*
X168846428Y-117723952D01*
X168894047Y-117771571D01*
X168941666Y-117866809D01*
X168941666Y-118104904D01*
X168894047Y-118200142D01*
X168846428Y-118247761D01*
X168751190Y-118295380D01*
X168513095Y-118295380D01*
X168417857Y-118247761D01*
X168370238Y-118200142D01*
X40123380Y-87994904D02*
X40837666Y-87994904D01*
X40980523Y-88042523D01*
X41075761Y-88137761D01*
X41123380Y-88280619D01*
X41123380Y-88375857D01*
X41123380Y-86994904D02*
X41123380Y-87566333D01*
X41123380Y-87280619D02*
X40123380Y-87280619D01*
X40266238Y-87375857D01*
X40361476Y-87471095D01*
X40409095Y-87566333D01*
X40123380Y-86375857D02*
X40123380Y-86280619D01*
X40171000Y-86185380D01*
X40218619Y-86137761D01*
X40313857Y-86090142D01*
X40504333Y-86042523D01*
X40742428Y-86042523D01*
X40932904Y-86090142D01*
X41028142Y-86137761D01*
X41075761Y-86185380D01*
X41123380Y-86280619D01*
X41123380Y-86375857D01*
X41075761Y-86471095D01*
X41028142Y-86518714D01*
X40932904Y-86566333D01*
X40742428Y-86613952D01*
X40504333Y-86613952D01*
X40313857Y-86566333D01*
X40218619Y-86518714D01*
X40171000Y-86471095D01*
X40123380Y-86375857D01*
X40123380Y-85423476D02*
X40123380Y-85328238D01*
X40171000Y-85233000D01*
X40218619Y-85185380D01*
X40313857Y-85137761D01*
X40504333Y-85090142D01*
X40742428Y-85090142D01*
X40932904Y-85137761D01*
X41028142Y-85185380D01*
X41075761Y-85233000D01*
X41123380Y-85328238D01*
X41123380Y-85423476D01*
X41075761Y-85518714D01*
X41028142Y-85566333D01*
X40932904Y-85613952D01*
X40742428Y-85661571D01*
X40504333Y-85661571D01*
X40313857Y-85613952D01*
X40218619Y-85566333D01*
X40171000Y-85518714D01*
X40123380Y-85423476D01*
X41123380Y-84137761D02*
X41123380Y-84709190D01*
X41123380Y-84423476D02*
X40123380Y-84423476D01*
X40266238Y-84518714D01*
X40361476Y-84613952D01*
X40409095Y-84709190D01*
X44170880Y-117056809D02*
X44285166Y-117094904D01*
X44475642Y-117094904D01*
X44551833Y-117056809D01*
X44589928Y-117018714D01*
X44628023Y-116942523D01*
X44628023Y-116866333D01*
X44589928Y-116790142D01*
X44551833Y-116752047D01*
X44475642Y-116713952D01*
X44323261Y-116675857D01*
X44247071Y-116637761D01*
X44208976Y-116599666D01*
X44170880Y-116523476D01*
X44170880Y-116447285D01*
X44208976Y-116371095D01*
X44247071Y-116333000D01*
X44323261Y-116294904D01*
X44513738Y-116294904D01*
X44628023Y-116333000D01*
X44970880Y-117094904D02*
X44970880Y-116294904D01*
X45428023Y-117094904D01*
X45428023Y-116294904D01*
X45808976Y-117018714D02*
X45847071Y-117056809D01*
X45808976Y-117094904D01*
X45770880Y-117056809D01*
X45808976Y-117018714D01*
X45808976Y-117094904D01*
X45808976Y-116599666D02*
X45847071Y-116637761D01*
X45808976Y-116675857D01*
X45770880Y-116637761D01*
X45808976Y-116599666D01*
X45808976Y-116675857D01*
X44475642Y-115425857D02*
X44589928Y-115463952D01*
X44628023Y-115502047D01*
X44666119Y-115578238D01*
X44666119Y-115692523D01*
X44628023Y-115768714D01*
X44589928Y-115806809D01*
X44513738Y-115844904D01*
X44208976Y-115844904D01*
X44208976Y-115044904D01*
X44475642Y-115044904D01*
X44551833Y-115083000D01*
X44589928Y-115121095D01*
X44628023Y-115197285D01*
X44628023Y-115273476D01*
X44589928Y-115349666D01*
X44551833Y-115387761D01*
X44475642Y-115425857D01*
X44208976Y-115425857D01*
X45161357Y-115044904D02*
X45313738Y-115044904D01*
X45389928Y-115083000D01*
X45466119Y-115159190D01*
X45504214Y-115311571D01*
X45504214Y-115578238D01*
X45466119Y-115730619D01*
X45389928Y-115806809D01*
X45313738Y-115844904D01*
X45161357Y-115844904D01*
X45085166Y-115806809D01*
X45008976Y-115730619D01*
X44970880Y-115578238D01*
X44970880Y-115311571D01*
X45008976Y-115159190D01*
X45085166Y-115083000D01*
X45161357Y-115044904D01*
X45808976Y-115616333D02*
X46189928Y-115616333D01*
X45732785Y-115844904D02*
X45999452Y-115044904D01*
X46266119Y-115844904D01*
X46989928Y-115844904D02*
X46723261Y-115463952D01*
X46532785Y-115844904D02*
X46532785Y-115044904D01*
X46837547Y-115044904D01*
X46913738Y-115083000D01*
X46951833Y-115121095D01*
X46989928Y-115197285D01*
X46989928Y-115311571D01*
X46951833Y-115387761D01*
X46913738Y-115425857D01*
X46837547Y-115463952D01*
X46532785Y-115463952D01*
X47332785Y-115844904D02*
X47332785Y-115044904D01*
X47523261Y-115044904D01*
X47637547Y-115083000D01*
X47713738Y-115159190D01*
X47751833Y-115235380D01*
X47789928Y-115387761D01*
X47789928Y-115502047D01*
X47751833Y-115654428D01*
X47713738Y-115730619D01*
X47637547Y-115806809D01*
X47523261Y-115844904D01*
X47332785Y-115844904D01*
X48132785Y-115768714D02*
X48170880Y-115806809D01*
X48132785Y-115844904D01*
X48094690Y-115806809D01*
X48132785Y-115768714D01*
X48132785Y-115844904D01*
X48132785Y-115349666D02*
X48170880Y-115387761D01*
X48132785Y-115425857D01*
X48094690Y-115387761D01*
X48132785Y-115349666D01*
X48132785Y-115425857D01*
X92875380Y-104765857D02*
X92989666Y-104803952D01*
X93027761Y-104842047D01*
X93065857Y-104918238D01*
X93065857Y-105032523D01*
X93027761Y-105108714D01*
X92989666Y-105146809D01*
X92913476Y-105184904D01*
X92608714Y-105184904D01*
X92608714Y-104384904D01*
X92875380Y-104384904D01*
X92951571Y-104423000D01*
X92989666Y-104461095D01*
X93027761Y-104537285D01*
X93027761Y-104613476D01*
X92989666Y-104689666D01*
X92951571Y-104727761D01*
X92875380Y-104765857D01*
X92608714Y-104765857D01*
X93332523Y-104384904D02*
X93827761Y-104384904D01*
X93561095Y-104689666D01*
X93675380Y-104689666D01*
X93751571Y-104727761D01*
X93789666Y-104765857D01*
X93827761Y-104842047D01*
X93827761Y-105032523D01*
X93789666Y-105108714D01*
X93751571Y-105146809D01*
X93675380Y-105184904D01*
X93446809Y-105184904D01*
X93370619Y-105146809D01*
X93332523Y-105108714D01*
X94208714Y-105184904D02*
X94361095Y-105184904D01*
X94437285Y-105146809D01*
X94475380Y-105108714D01*
X94551571Y-104994428D01*
X94589666Y-104842047D01*
X94589666Y-104537285D01*
X94551571Y-104461095D01*
X94513476Y-104423000D01*
X94437285Y-104384904D01*
X94284904Y-104384904D01*
X94208714Y-104423000D01*
X94170619Y-104461095D01*
X94132523Y-104537285D01*
X94132523Y-104727761D01*
X94170619Y-104803952D01*
X94208714Y-104842047D01*
X94284904Y-104880142D01*
X94437285Y-104880142D01*
X94513476Y-104842047D01*
X94551571Y-104803952D01*
X94589666Y-104727761D01*
X95123000Y-105451571D02*
X95123000Y-104308714D01*
X95961095Y-104765857D02*
X96075380Y-104803952D01*
X96113476Y-104842047D01*
X96151571Y-104918238D01*
X96151571Y-105032523D01*
X96113476Y-105108714D01*
X96075380Y-105146809D01*
X95999190Y-105184904D01*
X95694428Y-105184904D01*
X95694428Y-104384904D01*
X95961095Y-104384904D01*
X96037285Y-104423000D01*
X96075380Y-104461095D01*
X96113476Y-104537285D01*
X96113476Y-104613476D01*
X96075380Y-104689666D01*
X96037285Y-104727761D01*
X95961095Y-104765857D01*
X95694428Y-104765857D01*
X96837285Y-104651571D02*
X96837285Y-105184904D01*
X96646809Y-104346809D02*
X96456333Y-104918238D01*
X96951571Y-104918238D01*
X97408714Y-104384904D02*
X97484904Y-104384904D01*
X97561095Y-104423000D01*
X97599190Y-104461095D01*
X97637285Y-104537285D01*
X97675380Y-104689666D01*
X97675380Y-104880142D01*
X97637285Y-105032523D01*
X97599190Y-105108714D01*
X97561095Y-105146809D01*
X97484904Y-105184904D01*
X97408714Y-105184904D01*
X97332523Y-105146809D01*
X97294428Y-105108714D01*
X97256333Y-105032523D01*
X97218238Y-104880142D01*
X97218238Y-104689666D01*
X97256333Y-104537285D01*
X97294428Y-104461095D01*
X97332523Y-104423000D01*
X97408714Y-104384904D01*
X35534809Y-64776333D02*
X35915761Y-64776333D01*
X35458619Y-65004904D02*
X35725285Y-64204904D01*
X35991952Y-65004904D01*
X36677666Y-65004904D02*
X36220523Y-65004904D01*
X36449095Y-65004904D02*
X36449095Y-64204904D01*
X36372904Y-64319190D01*
X36296714Y-64395380D01*
X36220523Y-64433476D01*
X37211000Y-65271571D02*
X37211000Y-64128714D01*
X37744333Y-64776333D02*
X38125285Y-64776333D01*
X37668142Y-65004904D02*
X37934809Y-64204904D01*
X38201476Y-65004904D01*
X38430047Y-64281095D02*
X38468142Y-64243000D01*
X38544333Y-64204904D01*
X38734809Y-64204904D01*
X38811000Y-64243000D01*
X38849095Y-64281095D01*
X38887190Y-64357285D01*
X38887190Y-64433476D01*
X38849095Y-64547761D01*
X38391952Y-65004904D01*
X38887190Y-65004904D01*
X207128380Y-88375904D02*
X207842666Y-88375904D01*
X207985523Y-88423523D01*
X208080761Y-88518761D01*
X208128380Y-88661619D01*
X208128380Y-88756857D01*
X208128380Y-87375904D02*
X208128380Y-87947333D01*
X208128380Y-87661619D02*
X207128380Y-87661619D01*
X207271238Y-87756857D01*
X207366476Y-87852095D01*
X207414095Y-87947333D01*
X207128380Y-86756857D02*
X207128380Y-86661619D01*
X207176000Y-86566380D01*
X207223619Y-86518761D01*
X207318857Y-86471142D01*
X207509333Y-86423523D01*
X207747428Y-86423523D01*
X207937904Y-86471142D01*
X208033142Y-86518761D01*
X208080761Y-86566380D01*
X208128380Y-86661619D01*
X208128380Y-86756857D01*
X208080761Y-86852095D01*
X208033142Y-86899714D01*
X207937904Y-86947333D01*
X207747428Y-86994952D01*
X207509333Y-86994952D01*
X207318857Y-86947333D01*
X207223619Y-86899714D01*
X207176000Y-86852095D01*
X207128380Y-86756857D01*
X207128380Y-85804476D02*
X207128380Y-85709238D01*
X207176000Y-85614000D01*
X207223619Y-85566380D01*
X207318857Y-85518761D01*
X207509333Y-85471142D01*
X207747428Y-85471142D01*
X207937904Y-85518761D01*
X208033142Y-85566380D01*
X208080761Y-85614000D01*
X208128380Y-85709238D01*
X208128380Y-85804476D01*
X208080761Y-85899714D01*
X208033142Y-85947333D01*
X207937904Y-85994952D01*
X207747428Y-86042571D01*
X207509333Y-86042571D01*
X207318857Y-85994952D01*
X207223619Y-85947333D01*
X207176000Y-85899714D01*
X207128380Y-85804476D01*
X208128380Y-84518761D02*
X208128380Y-85090190D01*
X208128380Y-84804476D02*
X207128380Y-84804476D01*
X207271238Y-84899714D01*
X207366476Y-84994952D01*
X207414095Y-85090190D01*
X211175880Y-117437809D02*
X211290166Y-117475904D01*
X211480642Y-117475904D01*
X211556833Y-117437809D01*
X211594928Y-117399714D01*
X211633023Y-117323523D01*
X211633023Y-117247333D01*
X211594928Y-117171142D01*
X211556833Y-117133047D01*
X211480642Y-117094952D01*
X211328261Y-117056857D01*
X211252071Y-117018761D01*
X211213976Y-116980666D01*
X211175880Y-116904476D01*
X211175880Y-116828285D01*
X211213976Y-116752095D01*
X211252071Y-116714000D01*
X211328261Y-116675904D01*
X211518738Y-116675904D01*
X211633023Y-116714000D01*
X211975880Y-117475904D02*
X211975880Y-116675904D01*
X212433023Y-117475904D01*
X212433023Y-116675904D01*
X212813976Y-117399714D02*
X212852071Y-117437809D01*
X212813976Y-117475904D01*
X212775880Y-117437809D01*
X212813976Y-117399714D01*
X212813976Y-117475904D01*
X212813976Y-116980666D02*
X212852071Y-117018761D01*
X212813976Y-117056857D01*
X212775880Y-117018761D01*
X212813976Y-116980666D01*
X212813976Y-117056857D01*
X211480642Y-115806857D02*
X211594928Y-115844952D01*
X211633023Y-115883047D01*
X211671119Y-115959238D01*
X211671119Y-116073523D01*
X211633023Y-116149714D01*
X211594928Y-116187809D01*
X211518738Y-116225904D01*
X211213976Y-116225904D01*
X211213976Y-115425904D01*
X211480642Y-115425904D01*
X211556833Y-115464000D01*
X211594928Y-115502095D01*
X211633023Y-115578285D01*
X211633023Y-115654476D01*
X211594928Y-115730666D01*
X211556833Y-115768761D01*
X211480642Y-115806857D01*
X211213976Y-115806857D01*
X212166357Y-115425904D02*
X212318738Y-115425904D01*
X212394928Y-115464000D01*
X212471119Y-115540190D01*
X212509214Y-115692571D01*
X212509214Y-115959238D01*
X212471119Y-116111619D01*
X212394928Y-116187809D01*
X212318738Y-116225904D01*
X212166357Y-116225904D01*
X212090166Y-116187809D01*
X212013976Y-116111619D01*
X211975880Y-115959238D01*
X211975880Y-115692571D01*
X212013976Y-115540190D01*
X212090166Y-115464000D01*
X212166357Y-115425904D01*
X212813976Y-115997333D02*
X213194928Y-115997333D01*
X212737785Y-116225904D02*
X213004452Y-115425904D01*
X213271119Y-116225904D01*
X213994928Y-116225904D02*
X213728261Y-115844952D01*
X213537785Y-116225904D02*
X213537785Y-115425904D01*
X213842547Y-115425904D01*
X213918738Y-115464000D01*
X213956833Y-115502095D01*
X213994928Y-115578285D01*
X213994928Y-115692571D01*
X213956833Y-115768761D01*
X213918738Y-115806857D01*
X213842547Y-115844952D01*
X213537785Y-115844952D01*
X214337785Y-116225904D02*
X214337785Y-115425904D01*
X214528261Y-115425904D01*
X214642547Y-115464000D01*
X214718738Y-115540190D01*
X214756833Y-115616380D01*
X214794928Y-115768761D01*
X214794928Y-115883047D01*
X214756833Y-116035428D01*
X214718738Y-116111619D01*
X214642547Y-116187809D01*
X214528261Y-116225904D01*
X214337785Y-116225904D01*
X215137785Y-116149714D02*
X215175880Y-116187809D01*
X215137785Y-116225904D01*
X215099690Y-116187809D01*
X215137785Y-116149714D01*
X215137785Y-116225904D01*
X215137785Y-115730666D02*
X215175880Y-115768761D01*
X215137785Y-115806857D01*
X215099690Y-115768761D01*
X215137785Y-115730666D01*
X215137785Y-115806857D01*
X259880380Y-105146857D02*
X259994666Y-105184952D01*
X260032761Y-105223047D01*
X260070857Y-105299238D01*
X260070857Y-105413523D01*
X260032761Y-105489714D01*
X259994666Y-105527809D01*
X259918476Y-105565904D01*
X259613714Y-105565904D01*
X259613714Y-104765904D01*
X259880380Y-104765904D01*
X259956571Y-104804000D01*
X259994666Y-104842095D01*
X260032761Y-104918285D01*
X260032761Y-104994476D01*
X259994666Y-105070666D01*
X259956571Y-105108761D01*
X259880380Y-105146857D01*
X259613714Y-105146857D01*
X260337523Y-104765904D02*
X260832761Y-104765904D01*
X260566095Y-105070666D01*
X260680380Y-105070666D01*
X260756571Y-105108761D01*
X260794666Y-105146857D01*
X260832761Y-105223047D01*
X260832761Y-105413523D01*
X260794666Y-105489714D01*
X260756571Y-105527809D01*
X260680380Y-105565904D01*
X260451809Y-105565904D01*
X260375619Y-105527809D01*
X260337523Y-105489714D01*
X261213714Y-105565904D02*
X261366095Y-105565904D01*
X261442285Y-105527809D01*
X261480380Y-105489714D01*
X261556571Y-105375428D01*
X261594666Y-105223047D01*
X261594666Y-104918285D01*
X261556571Y-104842095D01*
X261518476Y-104804000D01*
X261442285Y-104765904D01*
X261289904Y-104765904D01*
X261213714Y-104804000D01*
X261175619Y-104842095D01*
X261137523Y-104918285D01*
X261137523Y-105108761D01*
X261175619Y-105184952D01*
X261213714Y-105223047D01*
X261289904Y-105261142D01*
X261442285Y-105261142D01*
X261518476Y-105223047D01*
X261556571Y-105184952D01*
X261594666Y-105108761D01*
X262128000Y-105832571D02*
X262128000Y-104689714D01*
X262966095Y-105146857D02*
X263080380Y-105184952D01*
X263118476Y-105223047D01*
X263156571Y-105299238D01*
X263156571Y-105413523D01*
X263118476Y-105489714D01*
X263080380Y-105527809D01*
X263004190Y-105565904D01*
X262699428Y-105565904D01*
X262699428Y-104765904D01*
X262966095Y-104765904D01*
X263042285Y-104804000D01*
X263080380Y-104842095D01*
X263118476Y-104918285D01*
X263118476Y-104994476D01*
X263080380Y-105070666D01*
X263042285Y-105108761D01*
X262966095Y-105146857D01*
X262699428Y-105146857D01*
X263842285Y-105032571D02*
X263842285Y-105565904D01*
X263651809Y-104727809D02*
X263461333Y-105299238D01*
X263956571Y-105299238D01*
X264413714Y-104765904D02*
X264489904Y-104765904D01*
X264566095Y-104804000D01*
X264604190Y-104842095D01*
X264642285Y-104918285D01*
X264680380Y-105070666D01*
X264680380Y-105261142D01*
X264642285Y-105413523D01*
X264604190Y-105489714D01*
X264566095Y-105527809D01*
X264489904Y-105565904D01*
X264413714Y-105565904D01*
X264337523Y-105527809D01*
X264299428Y-105489714D01*
X264261333Y-105413523D01*
X264223238Y-105261142D01*
X264223238Y-105070666D01*
X264261333Y-104918285D01*
X264299428Y-104842095D01*
X264337523Y-104804000D01*
X264413714Y-104765904D01*
X202539809Y-65157333D02*
X202920761Y-65157333D01*
X202463619Y-65385904D02*
X202730285Y-64585904D01*
X202996952Y-65385904D01*
X203682666Y-65385904D02*
X203225523Y-65385904D01*
X203454095Y-65385904D02*
X203454095Y-64585904D01*
X203377904Y-64700190D01*
X203301714Y-64776380D01*
X203225523Y-64814476D01*
X204216000Y-65652571D02*
X204216000Y-64509714D01*
X204749333Y-65157333D02*
X205130285Y-65157333D01*
X204673142Y-65385904D02*
X204939809Y-64585904D01*
X205206476Y-65385904D01*
X205435047Y-64662095D02*
X205473142Y-64624000D01*
X205549333Y-64585904D01*
X205739809Y-64585904D01*
X205816000Y-64624000D01*
X205854095Y-64662095D01*
X205892190Y-64738285D01*
X205892190Y-64814476D01*
X205854095Y-64928761D01*
X205396952Y-65385904D01*
X205892190Y-65385904D01*
X228289142Y-88552357D02*
X228336761Y-88599976D01*
X228384380Y-88742833D01*
X228384380Y-88838071D01*
X228336761Y-88980928D01*
X228241523Y-89076166D01*
X228146285Y-89123785D01*
X227955809Y-89171404D01*
X227812952Y-89171404D01*
X227622476Y-89123785D01*
X227527238Y-89076166D01*
X227432000Y-88980928D01*
X227384380Y-88838071D01*
X227384380Y-88742833D01*
X227432000Y-88599976D01*
X227479619Y-88552357D01*
X227479619Y-88171404D02*
X227432000Y-88123785D01*
X227384380Y-88028547D01*
X227384380Y-87790452D01*
X227432000Y-87695214D01*
X227479619Y-87647595D01*
X227574857Y-87599976D01*
X227670095Y-87599976D01*
X227812952Y-87647595D01*
X228384380Y-88219023D01*
X228384380Y-87599976D01*
X227384380Y-86695214D02*
X227384380Y-87171404D01*
X227860571Y-87219023D01*
X227812952Y-87171404D01*
X227765333Y-87076166D01*
X227765333Y-86838071D01*
X227812952Y-86742833D01*
X227860571Y-86695214D01*
X227955809Y-86647595D01*
X228193904Y-86647595D01*
X228289142Y-86695214D01*
X228336761Y-86742833D01*
X228384380Y-86838071D01*
X228384380Y-87076166D01*
X228336761Y-87171404D01*
X228289142Y-87219023D01*
X54492142Y-101734857D02*
X54539761Y-101782476D01*
X54587380Y-101925333D01*
X54587380Y-102020571D01*
X54539761Y-102163428D01*
X54444523Y-102258666D01*
X54349285Y-102306285D01*
X54158809Y-102353904D01*
X54015952Y-102353904D01*
X53825476Y-102306285D01*
X53730238Y-102258666D01*
X53635000Y-102163428D01*
X53587380Y-102020571D01*
X53587380Y-101925333D01*
X53635000Y-101782476D01*
X53682619Y-101734857D01*
X54587380Y-100782476D02*
X54587380Y-101353904D01*
X54587380Y-101068190D02*
X53587380Y-101068190D01*
X53730238Y-101163428D01*
X53825476Y-101258666D01*
X53873095Y-101353904D01*
X53587380Y-99925333D02*
X53587380Y-100115809D01*
X53635000Y-100211047D01*
X53682619Y-100258666D01*
X53825476Y-100353904D01*
X54015952Y-100401523D01*
X54396904Y-100401523D01*
X54492142Y-100353904D01*
X54539761Y-100306285D01*
X54587380Y-100211047D01*
X54587380Y-100020571D01*
X54539761Y-99925333D01*
X54492142Y-99877714D01*
X54396904Y-99830095D01*
X54158809Y-99830095D01*
X54063571Y-99877714D01*
X54015952Y-99925333D01*
X53968333Y-100020571D01*
X53968333Y-100211047D01*
X54015952Y-100306285D01*
X54063571Y-100353904D01*
X54158809Y-100401523D01*
X70621142Y-96248357D02*
X70668761Y-96295976D01*
X70716380Y-96438833D01*
X70716380Y-96534071D01*
X70668761Y-96676928D01*
X70573523Y-96772166D01*
X70478285Y-96819785D01*
X70287809Y-96867404D01*
X70144952Y-96867404D01*
X69954476Y-96819785D01*
X69859238Y-96772166D01*
X69764000Y-96676928D01*
X69716380Y-96534071D01*
X69716380Y-96438833D01*
X69764000Y-96295976D01*
X69811619Y-96248357D01*
X70716380Y-95295976D02*
X70716380Y-95867404D01*
X70716380Y-95581690D02*
X69716380Y-95581690D01*
X69859238Y-95676928D01*
X69954476Y-95772166D01*
X70002095Y-95867404D01*
X69716380Y-94962642D02*
X69716380Y-94295976D01*
X70716380Y-94724547D01*
X87639142Y-101760357D02*
X87686761Y-101807976D01*
X87734380Y-101950833D01*
X87734380Y-102046071D01*
X87686761Y-102188928D01*
X87591523Y-102284166D01*
X87496285Y-102331785D01*
X87305809Y-102379404D01*
X87162952Y-102379404D01*
X86972476Y-102331785D01*
X86877238Y-102284166D01*
X86782000Y-102188928D01*
X86734380Y-102046071D01*
X86734380Y-101950833D01*
X86782000Y-101807976D01*
X86829619Y-101760357D01*
X86829619Y-101379404D02*
X86782000Y-101331785D01*
X86734380Y-101236547D01*
X86734380Y-100998452D01*
X86782000Y-100903214D01*
X86829619Y-100855595D01*
X86924857Y-100807976D01*
X87020095Y-100807976D01*
X87162952Y-100855595D01*
X87734380Y-101427023D01*
X87734380Y-100807976D01*
X86734380Y-100188928D02*
X86734380Y-100093690D01*
X86782000Y-99998452D01*
X86829619Y-99950833D01*
X86924857Y-99903214D01*
X87115333Y-99855595D01*
X87353428Y-99855595D01*
X87543904Y-99903214D01*
X87639142Y-99950833D01*
X87686761Y-99998452D01*
X87734380Y-100093690D01*
X87734380Y-100188928D01*
X87686761Y-100284166D01*
X87639142Y-100331785D01*
X87543904Y-100379404D01*
X87353428Y-100427023D01*
X87115333Y-100427023D01*
X86924857Y-100379404D01*
X86829619Y-100331785D01*
X86782000Y-100284166D01*
X86734380Y-100188928D01*
X214827142Y-88552357D02*
X214874761Y-88599976D01*
X214922380Y-88742833D01*
X214922380Y-88838071D01*
X214874761Y-88980928D01*
X214779523Y-89076166D01*
X214684285Y-89123785D01*
X214493809Y-89171404D01*
X214350952Y-89171404D01*
X214160476Y-89123785D01*
X214065238Y-89076166D01*
X213970000Y-88980928D01*
X213922380Y-88838071D01*
X213922380Y-88742833D01*
X213970000Y-88599976D01*
X214017619Y-88552357D01*
X214017619Y-88171404D02*
X213970000Y-88123785D01*
X213922380Y-88028547D01*
X213922380Y-87790452D01*
X213970000Y-87695214D01*
X214017619Y-87647595D01*
X214112857Y-87599976D01*
X214208095Y-87599976D01*
X214350952Y-87647595D01*
X214922380Y-88219023D01*
X214922380Y-87599976D01*
X214255714Y-86742833D02*
X214922380Y-86742833D01*
X213874761Y-86980928D02*
X214589047Y-87219023D01*
X214589047Y-86599976D01*
X244545142Y-88552357D02*
X244592761Y-88599976D01*
X244640380Y-88742833D01*
X244640380Y-88838071D01*
X244592761Y-88980928D01*
X244497523Y-89076166D01*
X244402285Y-89123785D01*
X244211809Y-89171404D01*
X244068952Y-89171404D01*
X243878476Y-89123785D01*
X243783238Y-89076166D01*
X243688000Y-88980928D01*
X243640380Y-88838071D01*
X243640380Y-88742833D01*
X243688000Y-88599976D01*
X243735619Y-88552357D01*
X243735619Y-88171404D02*
X243688000Y-88123785D01*
X243640380Y-88028547D01*
X243640380Y-87790452D01*
X243688000Y-87695214D01*
X243735619Y-87647595D01*
X243830857Y-87599976D01*
X243926095Y-87599976D01*
X244068952Y-87647595D01*
X244640380Y-88219023D01*
X244640380Y-87599976D01*
X244068952Y-87028547D02*
X244021333Y-87123785D01*
X243973714Y-87171404D01*
X243878476Y-87219023D01*
X243830857Y-87219023D01*
X243735619Y-87171404D01*
X243688000Y-87123785D01*
X243640380Y-87028547D01*
X243640380Y-86838071D01*
X243688000Y-86742833D01*
X243735619Y-86695214D01*
X243830857Y-86647595D01*
X243878476Y-86647595D01*
X243973714Y-86695214D01*
X244021333Y-86742833D01*
X244068952Y-86838071D01*
X244068952Y-87028547D01*
X244116571Y-87123785D01*
X244164190Y-87171404D01*
X244259428Y-87219023D01*
X244449904Y-87219023D01*
X244545142Y-87171404D01*
X244592761Y-87123785D01*
X244640380Y-87028547D01*
X244640380Y-86838071D01*
X244592761Y-86742833D01*
X244545142Y-86695214D01*
X244449904Y-86647595D01*
X244259428Y-86647595D01*
X244164190Y-86695214D01*
X244116571Y-86742833D01*
X244068952Y-86838071D01*
X80484642Y-82305142D02*
X80437023Y-82352761D01*
X80294166Y-82400380D01*
X80198928Y-82400380D01*
X80056071Y-82352761D01*
X79960833Y-82257523D01*
X79913214Y-82162285D01*
X79865595Y-81971809D01*
X79865595Y-81828952D01*
X79913214Y-81638476D01*
X79960833Y-81543238D01*
X80056071Y-81448000D01*
X80198928Y-81400380D01*
X80294166Y-81400380D01*
X80437023Y-81448000D01*
X80484642Y-81495619D01*
X81437023Y-82400380D02*
X80865595Y-82400380D01*
X81151309Y-82400380D02*
X81151309Y-81400380D01*
X81056071Y-81543238D01*
X80960833Y-81638476D01*
X80865595Y-81686095D01*
X82341785Y-81400380D02*
X81865595Y-81400380D01*
X81817976Y-81876571D01*
X81865595Y-81828952D01*
X81960833Y-81781333D01*
X82198928Y-81781333D01*
X82294166Y-81828952D01*
X82341785Y-81876571D01*
X82389404Y-81971809D01*
X82389404Y-82209904D01*
X82341785Y-82305142D01*
X82294166Y-82352761D01*
X82198928Y-82400380D01*
X81960833Y-82400380D01*
X81865595Y-82352761D01*
X81817976Y-82305142D01*
X64228642Y-82399142D02*
X64181023Y-82446761D01*
X64038166Y-82494380D01*
X63942928Y-82494380D01*
X63800071Y-82446761D01*
X63704833Y-82351523D01*
X63657214Y-82256285D01*
X63609595Y-82065809D01*
X63609595Y-81922952D01*
X63657214Y-81732476D01*
X63704833Y-81637238D01*
X63800071Y-81542000D01*
X63942928Y-81494380D01*
X64038166Y-81494380D01*
X64181023Y-81542000D01*
X64228642Y-81589619D01*
X65181023Y-82494380D02*
X64609595Y-82494380D01*
X64895309Y-82494380D02*
X64895309Y-81494380D01*
X64800071Y-81637238D01*
X64704833Y-81732476D01*
X64609595Y-81780095D01*
X66038166Y-81827714D02*
X66038166Y-82494380D01*
X65800071Y-81446761D02*
X65561976Y-82161047D01*
X66181023Y-82161047D01*
X42361142Y-71724738D02*
X42408761Y-71772357D01*
X42456380Y-71915214D01*
X42456380Y-72010452D01*
X42408761Y-72153309D01*
X42313523Y-72248547D01*
X42218285Y-72296166D01*
X42027809Y-72343785D01*
X41884952Y-72343785D01*
X41694476Y-72296166D01*
X41599238Y-72248547D01*
X41504000Y-72153309D01*
X41456380Y-72010452D01*
X41456380Y-71915214D01*
X41504000Y-71772357D01*
X41551619Y-71724738D01*
X42456380Y-70772357D02*
X42456380Y-71343785D01*
X42456380Y-71058071D02*
X41456380Y-71058071D01*
X41599238Y-71153309D01*
X41694476Y-71248547D01*
X41742095Y-71343785D01*
X41456380Y-70439023D02*
X41456380Y-69819976D01*
X41837333Y-70153309D01*
X41837333Y-70010452D01*
X41884952Y-69915214D01*
X41932571Y-69867595D01*
X42027809Y-69819976D01*
X42265904Y-69819976D01*
X42361142Y-69867595D01*
X42408761Y-69915214D01*
X42456380Y-70010452D01*
X42456380Y-70296166D01*
X42408761Y-70391404D01*
X42361142Y-70439023D01*
X41456380Y-69200928D02*
X41456380Y-69105690D01*
X41504000Y-69010452D01*
X41551619Y-68962833D01*
X41646857Y-68915214D01*
X41837333Y-68867595D01*
X42075428Y-68867595D01*
X42265904Y-68915214D01*
X42361142Y-68962833D01*
X42408761Y-69010452D01*
X42456380Y-69105690D01*
X42456380Y-69200928D01*
X42408761Y-69296166D01*
X42361142Y-69343785D01*
X42265904Y-69391404D01*
X42075428Y-69439023D01*
X41837333Y-69439023D01*
X41646857Y-69391404D01*
X41551619Y-69343785D01*
X41504000Y-69296166D01*
X41456380Y-69200928D01*
X42456380Y-67915214D02*
X42456380Y-68486642D01*
X42456380Y-68200928D02*
X41456380Y-68200928D01*
X41599238Y-68296166D01*
X41694476Y-68391404D01*
X41742095Y-68486642D01*
X247720142Y-88552357D02*
X247767761Y-88599976D01*
X247815380Y-88742833D01*
X247815380Y-88838071D01*
X247767761Y-88980928D01*
X247672523Y-89076166D01*
X247577285Y-89123785D01*
X247386809Y-89171404D01*
X247243952Y-89171404D01*
X247053476Y-89123785D01*
X246958238Y-89076166D01*
X246863000Y-88980928D01*
X246815380Y-88838071D01*
X246815380Y-88742833D01*
X246863000Y-88599976D01*
X246910619Y-88552357D01*
X246910619Y-88171404D02*
X246863000Y-88123785D01*
X246815380Y-88028547D01*
X246815380Y-87790452D01*
X246863000Y-87695214D01*
X246910619Y-87647595D01*
X247005857Y-87599976D01*
X247101095Y-87599976D01*
X247243952Y-87647595D01*
X247815380Y-88219023D01*
X247815380Y-87599976D01*
X246815380Y-86742833D02*
X246815380Y-86933309D01*
X246863000Y-87028547D01*
X246910619Y-87076166D01*
X247053476Y-87171404D01*
X247243952Y-87219023D01*
X247624904Y-87219023D01*
X247720142Y-87171404D01*
X247767761Y-87123785D01*
X247815380Y-87028547D01*
X247815380Y-86838071D01*
X247767761Y-86742833D01*
X247720142Y-86695214D01*
X247624904Y-86647595D01*
X247386809Y-86647595D01*
X247291571Y-86695214D01*
X247243952Y-86742833D01*
X247196333Y-86838071D01*
X247196333Y-87028547D01*
X247243952Y-87123785D01*
X247291571Y-87171404D01*
X247386809Y-87219023D01*
X234639142Y-88425357D02*
X234686761Y-88472976D01*
X234734380Y-88615833D01*
X234734380Y-88711071D01*
X234686761Y-88853928D01*
X234591523Y-88949166D01*
X234496285Y-88996785D01*
X234305809Y-89044404D01*
X234162952Y-89044404D01*
X233972476Y-88996785D01*
X233877238Y-88949166D01*
X233782000Y-88853928D01*
X233734380Y-88711071D01*
X233734380Y-88615833D01*
X233782000Y-88472976D01*
X233829619Y-88425357D01*
X233829619Y-88044404D02*
X233782000Y-87996785D01*
X233734380Y-87901547D01*
X233734380Y-87663452D01*
X233782000Y-87568214D01*
X233829619Y-87520595D01*
X233924857Y-87472976D01*
X234020095Y-87472976D01*
X234162952Y-87520595D01*
X234734380Y-88092023D01*
X234734380Y-87472976D01*
X233734380Y-87139642D02*
X233734380Y-86520595D01*
X234115333Y-86853928D01*
X234115333Y-86711071D01*
X234162952Y-86615833D01*
X234210571Y-86568214D01*
X234305809Y-86520595D01*
X234543904Y-86520595D01*
X234639142Y-86568214D01*
X234686761Y-86615833D01*
X234734380Y-86711071D01*
X234734380Y-86996785D01*
X234686761Y-87092023D01*
X234639142Y-87139642D01*
X220735142Y-88552357D02*
X220782761Y-88599976D01*
X220830380Y-88742833D01*
X220830380Y-88838071D01*
X220782761Y-88980928D01*
X220687523Y-89076166D01*
X220592285Y-89123785D01*
X220401809Y-89171404D01*
X220258952Y-89171404D01*
X220068476Y-89123785D01*
X219973238Y-89076166D01*
X219878000Y-88980928D01*
X219830380Y-88838071D01*
X219830380Y-88742833D01*
X219878000Y-88599976D01*
X219925619Y-88552357D01*
X219925619Y-88171404D02*
X219878000Y-88123785D01*
X219830380Y-88028547D01*
X219830380Y-87790452D01*
X219878000Y-87695214D01*
X219925619Y-87647595D01*
X220020857Y-87599976D01*
X220116095Y-87599976D01*
X220258952Y-87647595D01*
X220830380Y-88219023D01*
X220830380Y-87599976D01*
X219925619Y-87219023D02*
X219878000Y-87171404D01*
X219830380Y-87076166D01*
X219830380Y-86838071D01*
X219878000Y-86742833D01*
X219925619Y-86695214D01*
X220020857Y-86647595D01*
X220116095Y-86647595D01*
X220258952Y-86695214D01*
X220830380Y-87266642D01*
X220830380Y-86647595D01*
X231464142Y-88552357D02*
X231511761Y-88599976D01*
X231559380Y-88742833D01*
X231559380Y-88838071D01*
X231511761Y-88980928D01*
X231416523Y-89076166D01*
X231321285Y-89123785D01*
X231130809Y-89171404D01*
X230987952Y-89171404D01*
X230797476Y-89123785D01*
X230702238Y-89076166D01*
X230607000Y-88980928D01*
X230559380Y-88838071D01*
X230559380Y-88742833D01*
X230607000Y-88599976D01*
X230654619Y-88552357D01*
X230654619Y-88171404D02*
X230607000Y-88123785D01*
X230559380Y-88028547D01*
X230559380Y-87790452D01*
X230607000Y-87695214D01*
X230654619Y-87647595D01*
X230749857Y-87599976D01*
X230845095Y-87599976D01*
X230987952Y-87647595D01*
X231559380Y-88219023D01*
X231559380Y-87599976D01*
X231559380Y-86647595D02*
X231559380Y-87219023D01*
X231559380Y-86933309D02*
X230559380Y-86933309D01*
X230702238Y-87028547D01*
X230797476Y-87123785D01*
X230845095Y-87219023D01*
X70936142Y-101760357D02*
X70983761Y-101807976D01*
X71031380Y-101950833D01*
X71031380Y-102046071D01*
X70983761Y-102188928D01*
X70888523Y-102284166D01*
X70793285Y-102331785D01*
X70602809Y-102379404D01*
X70459952Y-102379404D01*
X70269476Y-102331785D01*
X70174238Y-102284166D01*
X70079000Y-102188928D01*
X70031380Y-102046071D01*
X70031380Y-101950833D01*
X70079000Y-101807976D01*
X70126619Y-101760357D01*
X71031380Y-100807976D02*
X71031380Y-101379404D01*
X71031380Y-101093690D02*
X70031380Y-101093690D01*
X70174238Y-101188928D01*
X70269476Y-101284166D01*
X70317095Y-101379404D01*
X70031380Y-100474642D02*
X70031380Y-99855595D01*
X70412333Y-100188928D01*
X70412333Y-100046071D01*
X70459952Y-99950833D01*
X70507571Y-99903214D01*
X70602809Y-99855595D01*
X70840904Y-99855595D01*
X70936142Y-99903214D01*
X70983761Y-99950833D01*
X71031380Y-100046071D01*
X71031380Y-100331785D01*
X70983761Y-100427023D01*
X70936142Y-100474642D01*
X143199142Y-81929166D02*
X143246761Y-81976785D01*
X143294380Y-82119642D01*
X143294380Y-82214880D01*
X143246761Y-82357738D01*
X143151523Y-82452976D01*
X143056285Y-82500595D01*
X142865809Y-82548214D01*
X142722952Y-82548214D01*
X142532476Y-82500595D01*
X142437238Y-82452976D01*
X142342000Y-82357738D01*
X142294380Y-82214880D01*
X142294380Y-82119642D01*
X142342000Y-81976785D01*
X142389619Y-81929166D01*
X142627714Y-81072023D02*
X143294380Y-81072023D01*
X142246761Y-81310119D02*
X142961047Y-81548214D01*
X142961047Y-80929166D01*
X54807142Y-101836357D02*
X54854761Y-101883976D01*
X54902380Y-102026833D01*
X54902380Y-102122071D01*
X54854761Y-102264928D01*
X54759523Y-102360166D01*
X54664285Y-102407785D01*
X54473809Y-102455404D01*
X54330952Y-102455404D01*
X54140476Y-102407785D01*
X54045238Y-102360166D01*
X53950000Y-102264928D01*
X53902380Y-102122071D01*
X53902380Y-102026833D01*
X53950000Y-101883976D01*
X53997619Y-101836357D01*
X54902380Y-100883976D02*
X54902380Y-101455404D01*
X54902380Y-101169690D02*
X53902380Y-101169690D01*
X54045238Y-101264928D01*
X54140476Y-101360166D01*
X54188095Y-101455404D01*
X53997619Y-100503023D02*
X53950000Y-100455404D01*
X53902380Y-100360166D01*
X53902380Y-100122071D01*
X53950000Y-100026833D01*
X53997619Y-99979214D01*
X54092857Y-99931595D01*
X54188095Y-99931595D01*
X54330952Y-99979214D01*
X54902380Y-100550642D01*
X54902380Y-99931595D01*
X253755142Y-88552357D02*
X253802761Y-88599976D01*
X253850380Y-88742833D01*
X253850380Y-88838071D01*
X253802761Y-88980928D01*
X253707523Y-89076166D01*
X253612285Y-89123785D01*
X253421809Y-89171404D01*
X253278952Y-89171404D01*
X253088476Y-89123785D01*
X252993238Y-89076166D01*
X252898000Y-88980928D01*
X252850380Y-88838071D01*
X252850380Y-88742833D01*
X252898000Y-88599976D01*
X252945619Y-88552357D01*
X252945619Y-88171404D02*
X252898000Y-88123785D01*
X252850380Y-88028547D01*
X252850380Y-87790452D01*
X252898000Y-87695214D01*
X252945619Y-87647595D01*
X253040857Y-87599976D01*
X253136095Y-87599976D01*
X253278952Y-87647595D01*
X253850380Y-88219023D01*
X253850380Y-87599976D01*
X252850380Y-87266642D02*
X252850380Y-86599976D01*
X253850380Y-87028547D01*
X75785642Y-76270142D02*
X75738023Y-76317761D01*
X75595166Y-76365380D01*
X75499928Y-76365380D01*
X75357071Y-76317761D01*
X75261833Y-76222523D01*
X75214214Y-76127285D01*
X75166595Y-75936809D01*
X75166595Y-75793952D01*
X75214214Y-75603476D01*
X75261833Y-75508238D01*
X75357071Y-75413000D01*
X75499928Y-75365380D01*
X75595166Y-75365380D01*
X75738023Y-75413000D01*
X75785642Y-75460619D01*
X76738023Y-76365380D02*
X76166595Y-76365380D01*
X76452309Y-76365380D02*
X76452309Y-75365380D01*
X76357071Y-75508238D01*
X76261833Y-75603476D01*
X76166595Y-75651095D01*
X77690404Y-76365380D02*
X77118976Y-76365380D01*
X77404690Y-76365380D02*
X77404690Y-75365380D01*
X77309452Y-75508238D01*
X77214214Y-75603476D01*
X77118976Y-75651095D01*
X70621142Y-101284166D02*
X70668761Y-101331785D01*
X70716380Y-101474642D01*
X70716380Y-101569880D01*
X70668761Y-101712738D01*
X70573523Y-101807976D01*
X70478285Y-101855595D01*
X70287809Y-101903214D01*
X70144952Y-101903214D01*
X69954476Y-101855595D01*
X69859238Y-101807976D01*
X69764000Y-101712738D01*
X69716380Y-101569880D01*
X69716380Y-101474642D01*
X69764000Y-101331785D01*
X69811619Y-101284166D01*
X70716380Y-100807976D02*
X70716380Y-100617500D01*
X70668761Y-100522261D01*
X70621142Y-100474642D01*
X70478285Y-100379404D01*
X70287809Y-100331785D01*
X69906857Y-100331785D01*
X69811619Y-100379404D01*
X69764000Y-100427023D01*
X69716380Y-100522261D01*
X69716380Y-100712738D01*
X69764000Y-100807976D01*
X69811619Y-100855595D01*
X69906857Y-100903214D01*
X70144952Y-100903214D01*
X70240190Y-100855595D01*
X70287809Y-100807976D01*
X70335428Y-100712738D01*
X70335428Y-100522261D01*
X70287809Y-100427023D01*
X70240190Y-100379404D01*
X70144952Y-100331785D01*
X84779142Y-96299357D02*
X84826761Y-96346976D01*
X84874380Y-96489833D01*
X84874380Y-96585071D01*
X84826761Y-96727928D01*
X84731523Y-96823166D01*
X84636285Y-96870785D01*
X84445809Y-96918404D01*
X84302952Y-96918404D01*
X84112476Y-96870785D01*
X84017238Y-96823166D01*
X83922000Y-96727928D01*
X83874380Y-96585071D01*
X83874380Y-96489833D01*
X83922000Y-96346976D01*
X83969619Y-96299357D01*
X84874380Y-95346976D02*
X84874380Y-95918404D01*
X84874380Y-95632690D02*
X83874380Y-95632690D01*
X84017238Y-95727928D01*
X84112476Y-95823166D01*
X84160095Y-95918404D01*
X84874380Y-94870785D02*
X84874380Y-94680309D01*
X84826761Y-94585071D01*
X84779142Y-94537452D01*
X84636285Y-94442214D01*
X84445809Y-94394595D01*
X84064857Y-94394595D01*
X83969619Y-94442214D01*
X83922000Y-94489833D01*
X83874380Y-94585071D01*
X83874380Y-94775547D01*
X83922000Y-94870785D01*
X83969619Y-94918404D01*
X84064857Y-94966023D01*
X84302952Y-94966023D01*
X84398190Y-94918404D01*
X84445809Y-94870785D01*
X84493428Y-94775547D01*
X84493428Y-94585071D01*
X84445809Y-94489833D01*
X84398190Y-94442214D01*
X84302952Y-94394595D01*
X76261833Y-79445142D02*
X76214214Y-79492761D01*
X76071357Y-79540380D01*
X75976119Y-79540380D01*
X75833261Y-79492761D01*
X75738023Y-79397523D01*
X75690404Y-79302285D01*
X75642785Y-79111809D01*
X75642785Y-78968952D01*
X75690404Y-78778476D01*
X75738023Y-78683238D01*
X75833261Y-78588000D01*
X75976119Y-78540380D01*
X76071357Y-78540380D01*
X76214214Y-78588000D01*
X76261833Y-78635619D01*
X76595166Y-78540380D02*
X77261833Y-78540380D01*
X76833261Y-79540380D01*
X60005833Y-76143142D02*
X59958214Y-76190761D01*
X59815357Y-76238380D01*
X59720119Y-76238380D01*
X59577261Y-76190761D01*
X59482023Y-76095523D01*
X59434404Y-76000285D01*
X59386785Y-75809809D01*
X59386785Y-75666952D01*
X59434404Y-75476476D01*
X59482023Y-75381238D01*
X59577261Y-75286000D01*
X59720119Y-75238380D01*
X59815357Y-75238380D01*
X59958214Y-75286000D01*
X60005833Y-75333619D01*
X60862976Y-75238380D02*
X60672500Y-75238380D01*
X60577261Y-75286000D01*
X60529642Y-75333619D01*
X60434404Y-75476476D01*
X60386785Y-75666952D01*
X60386785Y-76047904D01*
X60434404Y-76143142D01*
X60482023Y-76190761D01*
X60577261Y-76238380D01*
X60767738Y-76238380D01*
X60862976Y-76190761D01*
X60910595Y-76143142D01*
X60958214Y-76047904D01*
X60958214Y-75809809D01*
X60910595Y-75714571D01*
X60862976Y-75666952D01*
X60767738Y-75619333D01*
X60577261Y-75619333D01*
X60482023Y-75666952D01*
X60434404Y-75714571D01*
X60386785Y-75809809D01*
X138500142Y-81929166D02*
X138547761Y-81976785D01*
X138595380Y-82119642D01*
X138595380Y-82214880D01*
X138547761Y-82357738D01*
X138452523Y-82452976D01*
X138357285Y-82500595D01*
X138166809Y-82548214D01*
X138023952Y-82548214D01*
X137833476Y-82500595D01*
X137738238Y-82452976D01*
X137643000Y-82357738D01*
X137595380Y-82214880D01*
X137595380Y-82119642D01*
X137643000Y-81976785D01*
X137690619Y-81929166D01*
X137595380Y-81024404D02*
X137595380Y-81500595D01*
X138071571Y-81548214D01*
X138023952Y-81500595D01*
X137976333Y-81405357D01*
X137976333Y-81167261D01*
X138023952Y-81072023D01*
X138071571Y-81024404D01*
X138166809Y-80976785D01*
X138404904Y-80976785D01*
X138500142Y-81024404D01*
X138547761Y-81072023D01*
X138595380Y-81167261D01*
X138595380Y-81405357D01*
X138547761Y-81500595D01*
X138500142Y-81548214D01*
X54365142Y-95797666D02*
X54412761Y-95845285D01*
X54460380Y-95988142D01*
X54460380Y-96083380D01*
X54412761Y-96226238D01*
X54317523Y-96321476D01*
X54222285Y-96369095D01*
X54031809Y-96416714D01*
X53888952Y-96416714D01*
X53698476Y-96369095D01*
X53603238Y-96321476D01*
X53508000Y-96226238D01*
X53460380Y-96083380D01*
X53460380Y-95988142D01*
X53508000Y-95845285D01*
X53555619Y-95797666D01*
X53888952Y-95226238D02*
X53841333Y-95321476D01*
X53793714Y-95369095D01*
X53698476Y-95416714D01*
X53650857Y-95416714D01*
X53555619Y-95369095D01*
X53508000Y-95321476D01*
X53460380Y-95226238D01*
X53460380Y-95035761D01*
X53508000Y-94940523D01*
X53555619Y-94892904D01*
X53650857Y-94845285D01*
X53698476Y-94845285D01*
X53793714Y-94892904D01*
X53841333Y-94940523D01*
X53888952Y-95035761D01*
X53888952Y-95226238D01*
X53936571Y-95321476D01*
X53984190Y-95369095D01*
X54079428Y-95416714D01*
X54269904Y-95416714D01*
X54365142Y-95369095D01*
X54412761Y-95321476D01*
X54460380Y-95226238D01*
X54460380Y-95035761D01*
X54412761Y-94940523D01*
X54365142Y-94892904D01*
X54269904Y-94845285D01*
X54079428Y-94845285D01*
X53984190Y-94892904D01*
X53936571Y-94940523D01*
X53888952Y-95035761D01*
X91322142Y-101760357D02*
X91369761Y-101807976D01*
X91417380Y-101950833D01*
X91417380Y-102046071D01*
X91369761Y-102188928D01*
X91274523Y-102284166D01*
X91179285Y-102331785D01*
X90988809Y-102379404D01*
X90845952Y-102379404D01*
X90655476Y-102331785D01*
X90560238Y-102284166D01*
X90465000Y-102188928D01*
X90417380Y-102046071D01*
X90417380Y-101950833D01*
X90465000Y-101807976D01*
X90512619Y-101760357D01*
X91417380Y-100807976D02*
X91417380Y-101379404D01*
X91417380Y-101093690D02*
X90417380Y-101093690D01*
X90560238Y-101188928D01*
X90655476Y-101284166D01*
X90703095Y-101379404D01*
X90845952Y-100236547D02*
X90798333Y-100331785D01*
X90750714Y-100379404D01*
X90655476Y-100427023D01*
X90607857Y-100427023D01*
X90512619Y-100379404D01*
X90465000Y-100331785D01*
X90417380Y-100236547D01*
X90417380Y-100046071D01*
X90465000Y-99950833D01*
X90512619Y-99903214D01*
X90607857Y-99855595D01*
X90655476Y-99855595D01*
X90750714Y-99903214D01*
X90798333Y-99950833D01*
X90845952Y-100046071D01*
X90845952Y-100236547D01*
X90893571Y-100331785D01*
X90941190Y-100379404D01*
X91036428Y-100427023D01*
X91226904Y-100427023D01*
X91322142Y-100379404D01*
X91369761Y-100331785D01*
X91417380Y-100236547D01*
X91417380Y-100046071D01*
X91369761Y-99950833D01*
X91322142Y-99903214D01*
X91226904Y-99855595D01*
X91036428Y-99855595D01*
X90941190Y-99903214D01*
X90893571Y-99950833D01*
X90845952Y-100046071D01*
X59656642Y-79572142D02*
X59609023Y-79619761D01*
X59466166Y-79667380D01*
X59370928Y-79667380D01*
X59228071Y-79619761D01*
X59132833Y-79524523D01*
X59085214Y-79429285D01*
X59037595Y-79238809D01*
X59037595Y-79095952D01*
X59085214Y-78905476D01*
X59132833Y-78810238D01*
X59228071Y-78715000D01*
X59370928Y-78667380D01*
X59466166Y-78667380D01*
X59609023Y-78715000D01*
X59656642Y-78762619D01*
X60609023Y-79667380D02*
X60037595Y-79667380D01*
X60323309Y-79667380D02*
X60323309Y-78667380D01*
X60228071Y-78810238D01*
X60132833Y-78905476D01*
X60037595Y-78953095D01*
X61228071Y-78667380D02*
X61323309Y-78667380D01*
X61418547Y-78715000D01*
X61466166Y-78762619D01*
X61513785Y-78857857D01*
X61561404Y-79048333D01*
X61561404Y-79286428D01*
X61513785Y-79476904D01*
X61466166Y-79572142D01*
X61418547Y-79619761D01*
X61323309Y-79667380D01*
X61228071Y-79667380D01*
X61132833Y-79619761D01*
X61085214Y-79572142D01*
X61037595Y-79476904D01*
X60989976Y-79286428D01*
X60989976Y-79048333D01*
X61037595Y-78857857D01*
X61085214Y-78762619D01*
X61132833Y-78715000D01*
X61228071Y-78667380D01*
X77207380Y-88391904D02*
X78016904Y-88391904D01*
X78112142Y-88344285D01*
X78159761Y-88296666D01*
X78207380Y-88201428D01*
X78207380Y-88010952D01*
X78159761Y-87915714D01*
X78112142Y-87868095D01*
X78016904Y-87820476D01*
X77207380Y-87820476D01*
X77207380Y-86868095D02*
X77207380Y-87344285D01*
X77683571Y-87391904D01*
X77635952Y-87344285D01*
X77588333Y-87249047D01*
X77588333Y-87010952D01*
X77635952Y-86915714D01*
X77683571Y-86868095D01*
X77778809Y-86820476D01*
X78016904Y-86820476D01*
X78112142Y-86868095D01*
X78159761Y-86915714D01*
X78207380Y-87010952D01*
X78207380Y-87249047D01*
X78159761Y-87344285D01*
X78112142Y-87391904D01*
X232822904Y-106671380D02*
X232822904Y-107480904D01*
X232870523Y-107576142D01*
X232918142Y-107623761D01*
X233013380Y-107671380D01*
X233203857Y-107671380D01*
X233299095Y-107623761D01*
X233346714Y-107576142D01*
X233394333Y-107480904D01*
X233394333Y-106671380D01*
X234394333Y-107671380D02*
X233822904Y-107671380D01*
X234108619Y-107671380D02*
X234108619Y-106671380D01*
X234013380Y-106814238D01*
X233918142Y-106909476D01*
X233822904Y-106957095D01*
X235299095Y-106671380D02*
X234822904Y-106671380D01*
X234775285Y-107147571D01*
X234822904Y-107099952D01*
X234918142Y-107052333D01*
X235156238Y-107052333D01*
X235251476Y-107099952D01*
X235299095Y-107147571D01*
X235346714Y-107242809D01*
X235346714Y-107480904D01*
X235299095Y-107576142D01*
X235251476Y-107623761D01*
X235156238Y-107671380D01*
X234918142Y-107671380D01*
X234822904Y-107623761D01*
X234775285Y-107576142D01*
X77978095Y-67580380D02*
X77978095Y-68389904D01*
X78025714Y-68485142D01*
X78073333Y-68532761D01*
X78168571Y-68580380D01*
X78359047Y-68580380D01*
X78454285Y-68532761D01*
X78501904Y-68485142D01*
X78549523Y-68389904D01*
X78549523Y-67580380D01*
X79073333Y-68580380D02*
X79263809Y-68580380D01*
X79359047Y-68532761D01*
X79406666Y-68485142D01*
X79501904Y-68342285D01*
X79549523Y-68151809D01*
X79549523Y-67770857D01*
X79501904Y-67675619D01*
X79454285Y-67628000D01*
X79359047Y-67580380D01*
X79168571Y-67580380D01*
X79073333Y-67628000D01*
X79025714Y-67675619D01*
X78978095Y-67770857D01*
X78978095Y-68008952D01*
X79025714Y-68104190D01*
X79073333Y-68151809D01*
X79168571Y-68199428D01*
X79359047Y-68199428D01*
X79454285Y-68151809D01*
X79501904Y-68104190D01*
X79549523Y-68008952D01*
X61595095Y-67326380D02*
X61595095Y-68135904D01*
X61642714Y-68231142D01*
X61690333Y-68278761D01*
X61785571Y-68326380D01*
X61976047Y-68326380D01*
X62071285Y-68278761D01*
X62118904Y-68231142D01*
X62166523Y-68135904D01*
X62166523Y-67326380D01*
X63071285Y-67659714D02*
X63071285Y-68326380D01*
X62833190Y-67278761D02*
X62595095Y-67993047D01*
X63214142Y-67993047D01*
X248951904Y-79660380D02*
X248951904Y-80469904D01*
X248999523Y-80565142D01*
X249047142Y-80612761D01*
X249142380Y-80660380D01*
X249332857Y-80660380D01*
X249428095Y-80612761D01*
X249475714Y-80565142D01*
X249523333Y-80469904D01*
X249523333Y-79660380D01*
X250523333Y-80660380D02*
X249951904Y-80660380D01*
X250237619Y-80660380D02*
X250237619Y-79660380D01*
X250142380Y-79803238D01*
X250047142Y-79898476D01*
X249951904Y-79946095D01*
X251380476Y-79660380D02*
X251190000Y-79660380D01*
X251094761Y-79708000D01*
X251047142Y-79755619D01*
X250951904Y-79898476D01*
X250904285Y-80088952D01*
X250904285Y-80469904D01*
X250951904Y-80565142D01*
X250999523Y-80612761D01*
X251094761Y-80660380D01*
X251285238Y-80660380D01*
X251380476Y-80612761D01*
X251428095Y-80565142D01*
X251475714Y-80469904D01*
X251475714Y-80231809D01*
X251428095Y-80136571D01*
X251380476Y-80088952D01*
X251285238Y-80041333D01*
X251094761Y-80041333D01*
X250999523Y-80088952D01*
X250951904Y-80136571D01*
X250904285Y-80231809D01*
X232822904Y-79660380D02*
X232822904Y-80469904D01*
X232870523Y-80565142D01*
X232918142Y-80612761D01*
X233013380Y-80660380D01*
X233203857Y-80660380D01*
X233299095Y-80612761D01*
X233346714Y-80565142D01*
X233394333Y-80469904D01*
X233394333Y-79660380D01*
X234394333Y-80660380D02*
X233822904Y-80660380D01*
X234108619Y-80660380D02*
X234108619Y-79660380D01*
X234013380Y-79803238D01*
X233918142Y-79898476D01*
X233822904Y-79946095D01*
X235251476Y-79993714D02*
X235251476Y-80660380D01*
X235013380Y-79612761D02*
X234775285Y-80327047D01*
X235394333Y-80327047D01*
X61118904Y-102901380D02*
X61118904Y-103710904D01*
X61166523Y-103806142D01*
X61214142Y-103853761D01*
X61309380Y-103901380D01*
X61499857Y-103901380D01*
X61595095Y-103853761D01*
X61642714Y-103806142D01*
X61690333Y-103710904D01*
X61690333Y-102901380D01*
X62690333Y-103901380D02*
X62118904Y-103901380D01*
X62404619Y-103901380D02*
X62404619Y-102901380D01*
X62309380Y-103044238D01*
X62214142Y-103139476D01*
X62118904Y-103187095D01*
X63642714Y-103901380D02*
X63071285Y-103901380D01*
X63357000Y-103901380D02*
X63357000Y-102901380D01*
X63261761Y-103044238D01*
X63166523Y-103139476D01*
X63071285Y-103187095D01*
X77501904Y-95901380D02*
X77501904Y-96710904D01*
X77549523Y-96806142D01*
X77597142Y-96853761D01*
X77692380Y-96901380D01*
X77882857Y-96901380D01*
X77978095Y-96853761D01*
X78025714Y-96806142D01*
X78073333Y-96710904D01*
X78073333Y-95901380D01*
X79073333Y-96901380D02*
X78501904Y-96901380D01*
X78787619Y-96901380D02*
X78787619Y-95901380D01*
X78692380Y-96044238D01*
X78597142Y-96139476D01*
X78501904Y-96187095D01*
X79454285Y-95996619D02*
X79501904Y-95949000D01*
X79597142Y-95901380D01*
X79835238Y-95901380D01*
X79930476Y-95949000D01*
X79978095Y-95996619D01*
X80025714Y-96091857D01*
X80025714Y-96187095D01*
X79978095Y-96329952D01*
X79406666Y-96901380D01*
X80025714Y-96901380D01*
X216058904Y-79533380D02*
X216058904Y-80342904D01*
X216106523Y-80438142D01*
X216154142Y-80485761D01*
X216249380Y-80533380D01*
X216439857Y-80533380D01*
X216535095Y-80485761D01*
X216582714Y-80438142D01*
X216630333Y-80342904D01*
X216630333Y-79533380D01*
X217630333Y-80533380D02*
X217058904Y-80533380D01*
X217344619Y-80533380D02*
X217344619Y-79533380D01*
X217249380Y-79676238D01*
X217154142Y-79771476D01*
X217058904Y-79819095D01*
X217963666Y-79533380D02*
X218582714Y-79533380D01*
X218249380Y-79914333D01*
X218392238Y-79914333D01*
X218487476Y-79961952D01*
X218535095Y-80009571D01*
X218582714Y-80104809D01*
X218582714Y-80342904D01*
X218535095Y-80438142D01*
X218487476Y-80485761D01*
X218392238Y-80533380D01*
X218106523Y-80533380D01*
X218011285Y-80485761D01*
X217963666Y-80438142D01*
X44735904Y-96028380D02*
X44735904Y-96837904D01*
X44783523Y-96933142D01*
X44831142Y-96980761D01*
X44926380Y-97028380D01*
X45116857Y-97028380D01*
X45212095Y-96980761D01*
X45259714Y-96933142D01*
X45307333Y-96837904D01*
X45307333Y-96028380D01*
X46307333Y-97028380D02*
X45735904Y-97028380D01*
X46021619Y-97028380D02*
X46021619Y-96028380D01*
X45926380Y-96171238D01*
X45831142Y-96266476D01*
X45735904Y-96314095D01*
X46926380Y-96028380D02*
X47021619Y-96028380D01*
X47116857Y-96076000D01*
X47164476Y-96123619D01*
X47212095Y-96218857D01*
X47259714Y-96409333D01*
X47259714Y-96647428D01*
X47212095Y-96837904D01*
X47164476Y-96933142D01*
X47116857Y-96980761D01*
X47021619Y-97028380D01*
X46926380Y-97028380D01*
X46831142Y-96980761D01*
X46783523Y-96933142D01*
X46735904Y-96837904D01*
X46688285Y-96647428D01*
X46688285Y-96409333D01*
X46735904Y-96218857D01*
X46783523Y-96123619D01*
X46831142Y-96076000D01*
X46926380Y-96028380D01*
X256771380Y-88552357D02*
X256295190Y-88885690D01*
X256771380Y-89123785D02*
X255771380Y-89123785D01*
X255771380Y-88742833D01*
X255819000Y-88647595D01*
X255866619Y-88599976D01*
X255961857Y-88552357D01*
X256104714Y-88552357D01*
X256199952Y-88599976D01*
X256247571Y-88647595D01*
X256295190Y-88742833D01*
X256295190Y-89123785D01*
X255866619Y-88171404D02*
X255819000Y-88123785D01*
X255771380Y-88028547D01*
X255771380Y-87790452D01*
X255819000Y-87695214D01*
X255866619Y-87647595D01*
X255961857Y-87599976D01*
X256057095Y-87599976D01*
X256199952Y-87647595D01*
X256771380Y-88219023D01*
X256771380Y-87599976D01*
X255771380Y-86742833D02*
X255771380Y-86933309D01*
X255819000Y-87028547D01*
X255866619Y-87076166D01*
X256009476Y-87171404D01*
X256199952Y-87219023D01*
X256580904Y-87219023D01*
X256676142Y-87171404D01*
X256723761Y-87123785D01*
X256771380Y-87028547D01*
X256771380Y-86838071D01*
X256723761Y-86742833D01*
X256676142Y-86695214D01*
X256580904Y-86647595D01*
X256342809Y-86647595D01*
X256247571Y-86695214D01*
X256199952Y-86742833D01*
X256152333Y-86838071D01*
X256152333Y-87028547D01*
X256199952Y-87123785D01*
X256247571Y-87171404D01*
X256342809Y-87219023D01*
X247159642Y-84432380D02*
X246826309Y-83956190D01*
X246588214Y-84432380D02*
X246588214Y-83432380D01*
X246969166Y-83432380D01*
X247064404Y-83480000D01*
X247112023Y-83527619D01*
X247159642Y-83622857D01*
X247159642Y-83765714D01*
X247112023Y-83860952D01*
X247064404Y-83908571D01*
X246969166Y-83956190D01*
X246588214Y-83956190D01*
X247540595Y-83527619D02*
X247588214Y-83480000D01*
X247683452Y-83432380D01*
X247921547Y-83432380D01*
X248016785Y-83480000D01*
X248064404Y-83527619D01*
X248112023Y-83622857D01*
X248112023Y-83718095D01*
X248064404Y-83860952D01*
X247492976Y-84432380D01*
X248112023Y-84432380D01*
X249016785Y-83432380D02*
X248540595Y-83432380D01*
X248492976Y-83908571D01*
X248540595Y-83860952D01*
X248635833Y-83813333D01*
X248873928Y-83813333D01*
X248969166Y-83860952D01*
X249016785Y-83908571D01*
X249064404Y-84003809D01*
X249064404Y-84241904D01*
X249016785Y-84337142D01*
X248969166Y-84384761D01*
X248873928Y-84432380D01*
X248635833Y-84432380D01*
X248540595Y-84384761D01*
X248492976Y-84337142D01*
X251807642Y-81572380D02*
X251474309Y-81096190D01*
X251236214Y-81572380D02*
X251236214Y-80572380D01*
X251617166Y-80572380D01*
X251712404Y-80620000D01*
X251760023Y-80667619D01*
X251807642Y-80762857D01*
X251807642Y-80905714D01*
X251760023Y-81000952D01*
X251712404Y-81048571D01*
X251617166Y-81096190D01*
X251236214Y-81096190D01*
X252188595Y-80667619D02*
X252236214Y-80620000D01*
X252331452Y-80572380D01*
X252569547Y-80572380D01*
X252664785Y-80620000D01*
X252712404Y-80667619D01*
X252760023Y-80762857D01*
X252760023Y-80858095D01*
X252712404Y-81000952D01*
X252140976Y-81572380D01*
X252760023Y-81572380D01*
X253617166Y-80905714D02*
X253617166Y-81572380D01*
X253379071Y-80524761D02*
X253140976Y-81239047D01*
X253760023Y-81239047D01*
X71224380Y-70169166D02*
X70748190Y-70502500D01*
X71224380Y-70740595D02*
X70224380Y-70740595D01*
X70224380Y-70359642D01*
X70272000Y-70264404D01*
X70319619Y-70216785D01*
X70414857Y-70169166D01*
X70557714Y-70169166D01*
X70652952Y-70216785D01*
X70700571Y-70264404D01*
X70748190Y-70359642D01*
X70748190Y-70740595D01*
X70224380Y-69835833D02*
X70224380Y-69216785D01*
X70605333Y-69550119D01*
X70605333Y-69407261D01*
X70652952Y-69312023D01*
X70700571Y-69264404D01*
X70795809Y-69216785D01*
X71033904Y-69216785D01*
X71129142Y-69264404D01*
X71176761Y-69312023D01*
X71224380Y-69407261D01*
X71224380Y-69692976D01*
X71176761Y-69788214D01*
X71129142Y-69835833D01*
X87734380Y-70405665D02*
X87258190Y-70738999D01*
X87734380Y-70977094D02*
X86734380Y-70977094D01*
X86734380Y-70596141D01*
X86782000Y-70500903D01*
X86829619Y-70453284D01*
X86924857Y-70405665D01*
X87067714Y-70405665D01*
X87162952Y-70453284D01*
X87210571Y-70500903D01*
X87258190Y-70596141D01*
X87258190Y-70977094D01*
X87067714Y-69548522D02*
X87734380Y-69548522D01*
X86686761Y-69786618D02*
X87401047Y-70024713D01*
X87401047Y-69405665D01*
X57762380Y-95772166D02*
X57286190Y-96105500D01*
X57762380Y-96343595D02*
X56762380Y-96343595D01*
X56762380Y-95962642D01*
X56810000Y-95867404D01*
X56857619Y-95819785D01*
X56952857Y-95772166D01*
X57095714Y-95772166D01*
X57190952Y-95819785D01*
X57238571Y-95867404D01*
X57286190Y-95962642D01*
X57286190Y-96343595D01*
X56762380Y-94867404D02*
X56762380Y-95343595D01*
X57238571Y-95391214D01*
X57190952Y-95343595D01*
X57143333Y-95248357D01*
X57143333Y-95010261D01*
X57190952Y-94915023D01*
X57238571Y-94867404D01*
X57333809Y-94819785D01*
X57571904Y-94819785D01*
X57667142Y-94867404D01*
X57714761Y-94915023D01*
X57762380Y-95010261D01*
X57762380Y-95248357D01*
X57714761Y-95343595D01*
X57667142Y-95391214D01*
X73916880Y-95797666D02*
X73440690Y-96131000D01*
X73916880Y-96369095D02*
X72916880Y-96369095D01*
X72916880Y-95988142D01*
X72964500Y-95892904D01*
X73012119Y-95845285D01*
X73107357Y-95797666D01*
X73250214Y-95797666D01*
X73345452Y-95845285D01*
X73393071Y-95892904D01*
X73440690Y-95988142D01*
X73440690Y-96369095D01*
X72916880Y-94940523D02*
X72916880Y-95131000D01*
X72964500Y-95226238D01*
X73012119Y-95273857D01*
X73154976Y-95369095D01*
X73345452Y-95416714D01*
X73726404Y-95416714D01*
X73821642Y-95369095D01*
X73869261Y-95321476D01*
X73916880Y-95226238D01*
X73916880Y-95035761D01*
X73869261Y-94940523D01*
X73821642Y-94892904D01*
X73726404Y-94845285D01*
X73488309Y-94845285D01*
X73393071Y-94892904D01*
X73345452Y-94940523D01*
X73297833Y-95035761D01*
X73297833Y-95226238D01*
X73345452Y-95321476D01*
X73393071Y-95369095D01*
X73488309Y-95416714D01*
X76261833Y-93891380D02*
X75928500Y-93415190D01*
X75690404Y-93891380D02*
X75690404Y-92891380D01*
X76071357Y-92891380D01*
X76166595Y-92939000D01*
X76214214Y-92986619D01*
X76261833Y-93081857D01*
X76261833Y-93224714D01*
X76214214Y-93319952D01*
X76166595Y-93367571D01*
X76071357Y-93415190D01*
X75690404Y-93415190D01*
X76595166Y-92891380D02*
X77261833Y-92891380D01*
X76833261Y-93891380D01*
X64577833Y-76238380D02*
X64244500Y-75762190D01*
X64006404Y-76238380D02*
X64006404Y-75238380D01*
X64387357Y-75238380D01*
X64482595Y-75286000D01*
X64530214Y-75333619D01*
X64577833Y-75428857D01*
X64577833Y-75571714D01*
X64530214Y-75666952D01*
X64482595Y-75714571D01*
X64387357Y-75762190D01*
X64006404Y-75762190D01*
X65149261Y-75666952D02*
X65054023Y-75619333D01*
X65006404Y-75571714D01*
X64958785Y-75476476D01*
X64958785Y-75428857D01*
X65006404Y-75333619D01*
X65054023Y-75286000D01*
X65149261Y-75238380D01*
X65339738Y-75238380D01*
X65434976Y-75286000D01*
X65482595Y-75333619D01*
X65530214Y-75428857D01*
X65530214Y-75476476D01*
X65482595Y-75571714D01*
X65434976Y-75619333D01*
X65339738Y-75666952D01*
X65149261Y-75666952D01*
X65054023Y-75714571D01*
X65006404Y-75762190D01*
X64958785Y-75857428D01*
X64958785Y-76047904D01*
X65006404Y-76143142D01*
X65054023Y-76190761D01*
X65149261Y-76238380D01*
X65339738Y-76238380D01*
X65434976Y-76190761D01*
X65482595Y-76143142D01*
X65530214Y-76047904D01*
X65530214Y-75857428D01*
X65482595Y-75762190D01*
X65434976Y-75714571D01*
X65339738Y-75666952D01*
X68364380Y-74995166D02*
X67888190Y-75328500D01*
X68364380Y-75566595D02*
X67364380Y-75566595D01*
X67364380Y-75185642D01*
X67412000Y-75090404D01*
X67459619Y-75042785D01*
X67554857Y-74995166D01*
X67697714Y-74995166D01*
X67792952Y-75042785D01*
X67840571Y-75090404D01*
X67888190Y-75185642D01*
X67888190Y-75566595D01*
X68364380Y-74518976D02*
X68364380Y-74328500D01*
X68316761Y-74233261D01*
X68269142Y-74185642D01*
X68126285Y-74090404D01*
X67935809Y-74042785D01*
X67554857Y-74042785D01*
X67459619Y-74090404D01*
X67412000Y-74138023D01*
X67364380Y-74233261D01*
X67364380Y-74423738D01*
X67412000Y-74518976D01*
X67459619Y-74566595D01*
X67554857Y-74614214D01*
X67792952Y-74614214D01*
X67888190Y-74566595D01*
X67935809Y-74518976D01*
X67983428Y-74423738D01*
X67983428Y-74233261D01*
X67935809Y-74138023D01*
X67888190Y-74090404D01*
X67792952Y-74042785D01*
X80484642Y-79098380D02*
X80151309Y-78622190D01*
X79913214Y-79098380D02*
X79913214Y-78098380D01*
X80294166Y-78098380D01*
X80389404Y-78146000D01*
X80437023Y-78193619D01*
X80484642Y-78288857D01*
X80484642Y-78431714D01*
X80437023Y-78526952D01*
X80389404Y-78574571D01*
X80294166Y-78622190D01*
X79913214Y-78622190D01*
X81437023Y-79098380D02*
X80865595Y-79098380D01*
X81151309Y-79098380D02*
X81151309Y-78098380D01*
X81056071Y-78241238D01*
X80960833Y-78336476D01*
X80865595Y-78384095D01*
X82056071Y-78098380D02*
X82151309Y-78098380D01*
X82246547Y-78146000D01*
X82294166Y-78193619D01*
X82341785Y-78288857D01*
X82389404Y-78479333D01*
X82389404Y-78717428D01*
X82341785Y-78907904D01*
X82294166Y-79003142D01*
X82246547Y-79050761D01*
X82151309Y-79098380D01*
X82056071Y-79098380D01*
X81960833Y-79050761D01*
X81913214Y-79003142D01*
X81865595Y-78907904D01*
X81817976Y-78717428D01*
X81817976Y-78479333D01*
X81865595Y-78288857D01*
X81913214Y-78193619D01*
X81960833Y-78146000D01*
X82056071Y-78098380D01*
X237655380Y-88425357D02*
X237179190Y-88758690D01*
X237655380Y-88996785D02*
X236655380Y-88996785D01*
X236655380Y-88615833D01*
X236703000Y-88520595D01*
X236750619Y-88472976D01*
X236845857Y-88425357D01*
X236988714Y-88425357D01*
X237083952Y-88472976D01*
X237131571Y-88520595D01*
X237179190Y-88615833D01*
X237179190Y-88996785D01*
X236750619Y-88044404D02*
X236703000Y-87996785D01*
X236655380Y-87901547D01*
X236655380Y-87663452D01*
X236703000Y-87568214D01*
X236750619Y-87520595D01*
X236845857Y-87472976D01*
X236941095Y-87472976D01*
X237083952Y-87520595D01*
X237655380Y-88092023D01*
X237655380Y-87472976D01*
X236655380Y-87139642D02*
X236655380Y-86520595D01*
X237036333Y-86853928D01*
X237036333Y-86711071D01*
X237083952Y-86615833D01*
X237131571Y-86568214D01*
X237226809Y-86520595D01*
X237464904Y-86520595D01*
X237560142Y-86568214D01*
X237607761Y-86615833D01*
X237655380Y-86711071D01*
X237655380Y-86996785D01*
X237607761Y-87092023D01*
X237560142Y-87139642D01*
X223878380Y-88501357D02*
X223402190Y-88834690D01*
X223878380Y-89072785D02*
X222878380Y-89072785D01*
X222878380Y-88691833D01*
X222926000Y-88596595D01*
X222973619Y-88548976D01*
X223068857Y-88501357D01*
X223211714Y-88501357D01*
X223306952Y-88548976D01*
X223354571Y-88596595D01*
X223402190Y-88691833D01*
X223402190Y-89072785D01*
X222973619Y-88120404D02*
X222926000Y-88072785D01*
X222878380Y-87977547D01*
X222878380Y-87739452D01*
X222926000Y-87644214D01*
X222973619Y-87596595D01*
X223068857Y-87548976D01*
X223164095Y-87548976D01*
X223306952Y-87596595D01*
X223878380Y-88168023D01*
X223878380Y-87548976D01*
X222973619Y-87168023D02*
X222926000Y-87120404D01*
X222878380Y-87025166D01*
X222878380Y-86787071D01*
X222926000Y-86691833D01*
X222973619Y-86644214D01*
X223068857Y-86596595D01*
X223164095Y-86596595D01*
X223306952Y-86644214D01*
X223878380Y-87215642D01*
X223878380Y-86596595D01*
X91417380Y-96299357D02*
X90941190Y-96632690D01*
X91417380Y-96870785D02*
X90417380Y-96870785D01*
X90417380Y-96489833D01*
X90465000Y-96394595D01*
X90512619Y-96346976D01*
X90607857Y-96299357D01*
X90750714Y-96299357D01*
X90845952Y-96346976D01*
X90893571Y-96394595D01*
X90941190Y-96489833D01*
X90941190Y-96870785D01*
X91417380Y-95346976D02*
X91417380Y-95918404D01*
X91417380Y-95632690D02*
X90417380Y-95632690D01*
X90560238Y-95727928D01*
X90655476Y-95823166D01*
X90703095Y-95918404D01*
X90417380Y-95013642D02*
X90417380Y-94346976D01*
X91417380Y-94775547D01*
X47591642Y-93891380D02*
X47258309Y-93415190D01*
X47020214Y-93891380D02*
X47020214Y-92891380D01*
X47401166Y-92891380D01*
X47496404Y-92939000D01*
X47544023Y-92986619D01*
X47591642Y-93081857D01*
X47591642Y-93224714D01*
X47544023Y-93319952D01*
X47496404Y-93367571D01*
X47401166Y-93415190D01*
X47020214Y-93415190D01*
X48544023Y-93891380D02*
X47972595Y-93891380D01*
X48258309Y-93891380D02*
X48258309Y-92891380D01*
X48163071Y-93034238D01*
X48067833Y-93129476D01*
X47972595Y-93177095D01*
X48877357Y-92891380D02*
X49496404Y-92891380D01*
X49163071Y-93272333D01*
X49305928Y-93272333D01*
X49401166Y-93319952D01*
X49448785Y-93367571D01*
X49496404Y-93462809D01*
X49496404Y-93700904D01*
X49448785Y-93796142D01*
X49401166Y-93843761D01*
X49305928Y-93891380D01*
X49020214Y-93891380D01*
X48924976Y-93843761D01*
X48877357Y-93796142D01*
X59402642Y-93891380D02*
X59069309Y-93415190D01*
X58831214Y-93891380D02*
X58831214Y-92891380D01*
X59212166Y-92891380D01*
X59307404Y-92939000D01*
X59355023Y-92986619D01*
X59402642Y-93081857D01*
X59402642Y-93224714D01*
X59355023Y-93319952D01*
X59307404Y-93367571D01*
X59212166Y-93415190D01*
X58831214Y-93415190D01*
X60355023Y-93891380D02*
X59783595Y-93891380D01*
X60069309Y-93891380D02*
X60069309Y-92891380D01*
X59974071Y-93034238D01*
X59878833Y-93129476D01*
X59783595Y-93177095D01*
X61212166Y-93224714D02*
X61212166Y-93891380D01*
X60974071Y-92843761D02*
X60735976Y-93558047D01*
X61355023Y-93558047D01*
X63974642Y-93891380D02*
X63641309Y-93415190D01*
X63403214Y-93891380D02*
X63403214Y-92891380D01*
X63784166Y-92891380D01*
X63879404Y-92939000D01*
X63927023Y-92986619D01*
X63974642Y-93081857D01*
X63974642Y-93224714D01*
X63927023Y-93319952D01*
X63879404Y-93367571D01*
X63784166Y-93415190D01*
X63403214Y-93415190D01*
X64927023Y-93891380D02*
X64355595Y-93891380D01*
X64641309Y-93891380D02*
X64641309Y-92891380D01*
X64546071Y-93034238D01*
X64450833Y-93129476D01*
X64355595Y-93177095D01*
X65831785Y-92891380D02*
X65355595Y-92891380D01*
X65307976Y-93367571D01*
X65355595Y-93319952D01*
X65450833Y-93272333D01*
X65688928Y-93272333D01*
X65784166Y-93319952D01*
X65831785Y-93367571D01*
X65879404Y-93462809D01*
X65879404Y-93700904D01*
X65831785Y-93796142D01*
X65784166Y-93843761D01*
X65688928Y-93891380D01*
X65450833Y-93891380D01*
X65355595Y-93843761D01*
X65307976Y-93796142D01*
X80383142Y-96751380D02*
X80049809Y-96275190D01*
X79811714Y-96751380D02*
X79811714Y-95751380D01*
X80192666Y-95751380D01*
X80287904Y-95799000D01*
X80335523Y-95846619D01*
X80383142Y-95941857D01*
X80383142Y-96084714D01*
X80335523Y-96179952D01*
X80287904Y-96227571D01*
X80192666Y-96275190D01*
X79811714Y-96275190D01*
X81335523Y-96751380D02*
X80764095Y-96751380D01*
X81049809Y-96751380D02*
X81049809Y-95751380D01*
X80954571Y-95894238D01*
X80859333Y-95989476D01*
X80764095Y-96037095D01*
X82192666Y-95751380D02*
X82002190Y-95751380D01*
X81906952Y-95799000D01*
X81859333Y-95846619D01*
X81764095Y-95989476D01*
X81716476Y-96179952D01*
X81716476Y-96560904D01*
X81764095Y-96656142D01*
X81811714Y-96703761D01*
X81906952Y-96751380D01*
X82097428Y-96751380D01*
X82192666Y-96703761D01*
X82240285Y-96656142D01*
X82287904Y-96560904D01*
X82287904Y-96322809D01*
X82240285Y-96227571D01*
X82192666Y-96179952D01*
X82097428Y-96132333D01*
X81906952Y-96132333D01*
X81811714Y-96179952D01*
X81764095Y-96227571D01*
X81716476Y-96322809D01*
X218914642Y-84559380D02*
X218581309Y-84083190D01*
X218343214Y-84559380D02*
X218343214Y-83559380D01*
X218724166Y-83559380D01*
X218819404Y-83607000D01*
X218867023Y-83654619D01*
X218914642Y-83749857D01*
X218914642Y-83892714D01*
X218867023Y-83987952D01*
X218819404Y-84035571D01*
X218724166Y-84083190D01*
X218343214Y-84083190D01*
X219867023Y-84559380D02*
X219295595Y-84559380D01*
X219581309Y-84559380D02*
X219581309Y-83559380D01*
X219486071Y-83702238D01*
X219390833Y-83797476D01*
X219295595Y-83845095D01*
X220438452Y-83987952D02*
X220343214Y-83940333D01*
X220295595Y-83892714D01*
X220247976Y-83797476D01*
X220247976Y-83749857D01*
X220295595Y-83654619D01*
X220343214Y-83607000D01*
X220438452Y-83559380D01*
X220628928Y-83559380D01*
X220724166Y-83607000D01*
X220771785Y-83654619D01*
X220819404Y-83749857D01*
X220819404Y-83797476D01*
X220771785Y-83892714D01*
X220724166Y-83940333D01*
X220628928Y-83987952D01*
X220438452Y-83987952D01*
X220343214Y-84035571D01*
X220295595Y-84083190D01*
X220247976Y-84178428D01*
X220247976Y-84368904D01*
X220295595Y-84464142D01*
X220343214Y-84511761D01*
X220438452Y-84559380D01*
X220628928Y-84559380D01*
X220724166Y-84511761D01*
X220771785Y-84464142D01*
X220819404Y-84368904D01*
X220819404Y-84178428D01*
X220771785Y-84083190D01*
X220724166Y-84035571D01*
X220628928Y-83987952D01*
X214342642Y-84559380D02*
X214009309Y-84083190D01*
X213771214Y-84559380D02*
X213771214Y-83559380D01*
X214152166Y-83559380D01*
X214247404Y-83607000D01*
X214295023Y-83654619D01*
X214342642Y-83749857D01*
X214342642Y-83892714D01*
X214295023Y-83987952D01*
X214247404Y-84035571D01*
X214152166Y-84083190D01*
X213771214Y-84083190D01*
X215295023Y-84559380D02*
X214723595Y-84559380D01*
X215009309Y-84559380D02*
X215009309Y-83559380D01*
X214914071Y-83702238D01*
X214818833Y-83797476D01*
X214723595Y-83845095D01*
X215771214Y-84559380D02*
X215961690Y-84559380D01*
X216056928Y-84511761D01*
X216104547Y-84464142D01*
X216199785Y-84321285D01*
X216247404Y-84130809D01*
X216247404Y-83749857D01*
X216199785Y-83654619D01*
X216152166Y-83607000D01*
X216056928Y-83559380D01*
X215866452Y-83559380D01*
X215771214Y-83607000D01*
X215723595Y-83654619D01*
X215675976Y-83749857D01*
X215675976Y-83987952D01*
X215723595Y-84083190D01*
X215771214Y-84130809D01*
X215866452Y-84178428D01*
X216056928Y-84178428D01*
X216152166Y-84130809D01*
X216199785Y-84083190D01*
X216247404Y-83987952D01*
X87734380Y-75598357D02*
X87258190Y-75931690D01*
X87734380Y-76169785D02*
X86734380Y-76169785D01*
X86734380Y-75788833D01*
X86782000Y-75693595D01*
X86829619Y-75645976D01*
X86924857Y-75598357D01*
X87067714Y-75598357D01*
X87162952Y-75645976D01*
X87210571Y-75693595D01*
X87258190Y-75788833D01*
X87258190Y-76169785D01*
X87734380Y-74645976D02*
X87734380Y-75217404D01*
X87734380Y-74931690D02*
X86734380Y-74931690D01*
X86877238Y-75026928D01*
X86972476Y-75122166D01*
X87020095Y-75217404D01*
X87734380Y-73693595D02*
X87734380Y-74265023D01*
X87734380Y-73979309D02*
X86734380Y-73979309D01*
X86877238Y-74074547D01*
X86972476Y-74169785D01*
X87020095Y-74265023D01*
X133919833Y-81572380D02*
X133586500Y-81096190D01*
X133348404Y-81572380D02*
X133348404Y-80572380D01*
X133729357Y-80572380D01*
X133824595Y-80620000D01*
X133872214Y-80667619D01*
X133919833Y-80762857D01*
X133919833Y-80905714D01*
X133872214Y-81000952D01*
X133824595Y-81048571D01*
X133729357Y-81096190D01*
X133348404Y-81096190D01*
X134872214Y-81572380D02*
X134300785Y-81572380D01*
X134586500Y-81572380D02*
X134586500Y-80572380D01*
X134491261Y-80715238D01*
X134396023Y-80810476D01*
X134300785Y-80858095D01*
X128890833Y-84432380D02*
X128557500Y-83956190D01*
X128319404Y-84432380D02*
X128319404Y-83432380D01*
X128700357Y-83432380D01*
X128795595Y-83480000D01*
X128843214Y-83527619D01*
X128890833Y-83622857D01*
X128890833Y-83765714D01*
X128843214Y-83860952D01*
X128795595Y-83908571D01*
X128700357Y-83956190D01*
X128319404Y-83956190D01*
X129271785Y-83527619D02*
X129319404Y-83480000D01*
X129414642Y-83432380D01*
X129652738Y-83432380D01*
X129747976Y-83480000D01*
X129795595Y-83527619D01*
X129843214Y-83622857D01*
X129843214Y-83718095D01*
X129795595Y-83860952D01*
X129224166Y-84432380D01*
X129843214Y-84432380D01*
X231106642Y-84559380D02*
X230773309Y-84083190D01*
X230535214Y-84559380D02*
X230535214Y-83559380D01*
X230916166Y-83559380D01*
X231011404Y-83607000D01*
X231059023Y-83654619D01*
X231106642Y-83749857D01*
X231106642Y-83892714D01*
X231059023Y-83987952D01*
X231011404Y-84035571D01*
X230916166Y-84083190D01*
X230535214Y-84083190D01*
X231487595Y-83654619D02*
X231535214Y-83607000D01*
X231630452Y-83559380D01*
X231868547Y-83559380D01*
X231963785Y-83607000D01*
X232011404Y-83654619D01*
X232059023Y-83749857D01*
X232059023Y-83845095D01*
X232011404Y-83987952D01*
X231439976Y-84559380D01*
X232059023Y-84559380D01*
X233011404Y-84559380D02*
X232439976Y-84559380D01*
X232725690Y-84559380D02*
X232725690Y-83559380D01*
X232630452Y-83702238D01*
X232535214Y-83797476D01*
X232439976Y-83845095D01*
X235678642Y-81699380D02*
X235345309Y-81223190D01*
X235107214Y-81699380D02*
X235107214Y-80699380D01*
X235488166Y-80699380D01*
X235583404Y-80747000D01*
X235631023Y-80794619D01*
X235678642Y-80889857D01*
X235678642Y-81032714D01*
X235631023Y-81127952D01*
X235583404Y-81175571D01*
X235488166Y-81223190D01*
X235107214Y-81223190D01*
X236059595Y-80794619D02*
X236107214Y-80747000D01*
X236202452Y-80699380D01*
X236440547Y-80699380D01*
X236535785Y-80747000D01*
X236583404Y-80794619D01*
X236631023Y-80889857D01*
X236631023Y-80985095D01*
X236583404Y-81127952D01*
X236011976Y-81699380D01*
X236631023Y-81699380D01*
X237250071Y-80699380D02*
X237345309Y-80699380D01*
X237440547Y-80747000D01*
X237488166Y-80794619D01*
X237535785Y-80889857D01*
X237583404Y-81080333D01*
X237583404Y-81318428D01*
X237535785Y-81508904D01*
X237488166Y-81604142D01*
X237440547Y-81651761D01*
X237345309Y-81699380D01*
X237250071Y-81699380D01*
X237154833Y-81651761D01*
X237107214Y-81604142D01*
X237059595Y-81508904D01*
X237011976Y-81318428D01*
X237011976Y-81080333D01*
X237059595Y-80889857D01*
X237107214Y-80794619D01*
X237154833Y-80747000D01*
X237250071Y-80699380D01*
X43019642Y-93891380D02*
X42686309Y-93415190D01*
X42448214Y-93891380D02*
X42448214Y-92891380D01*
X42829166Y-92891380D01*
X42924404Y-92939000D01*
X42972023Y-92986619D01*
X43019642Y-93081857D01*
X43019642Y-93224714D01*
X42972023Y-93319952D01*
X42924404Y-93367571D01*
X42829166Y-93415190D01*
X42448214Y-93415190D01*
X43972023Y-93891380D02*
X43400595Y-93891380D01*
X43686309Y-93891380D02*
X43686309Y-92891380D01*
X43591071Y-93034238D01*
X43495833Y-93129476D01*
X43400595Y-93177095D01*
X44352976Y-92986619D02*
X44400595Y-92939000D01*
X44495833Y-92891380D01*
X44733928Y-92891380D01*
X44829166Y-92939000D01*
X44876785Y-92986619D01*
X44924404Y-93081857D01*
X44924404Y-93177095D01*
X44876785Y-93319952D01*
X44305357Y-93891380D01*
X44924404Y-93891380D01*
X124324380Y-87613904D02*
X125038666Y-87613904D01*
X125181523Y-87661523D01*
X125276761Y-87756761D01*
X125324380Y-87899619D01*
X125324380Y-87994857D01*
X125324380Y-86613904D02*
X125324380Y-87185333D01*
X125324380Y-86899619D02*
X124324380Y-86899619D01*
X124467238Y-86994857D01*
X124562476Y-87090095D01*
X124610095Y-87185333D01*
X124324380Y-85994857D02*
X124324380Y-85899619D01*
X124372000Y-85804380D01*
X124419619Y-85756761D01*
X124514857Y-85709142D01*
X124705333Y-85661523D01*
X124943428Y-85661523D01*
X125133904Y-85709142D01*
X125229142Y-85756761D01*
X125276761Y-85804380D01*
X125324380Y-85899619D01*
X125324380Y-85994857D01*
X125276761Y-86090095D01*
X125229142Y-86137714D01*
X125133904Y-86185333D01*
X124943428Y-86232952D01*
X124705333Y-86232952D01*
X124514857Y-86185333D01*
X124419619Y-86137714D01*
X124372000Y-86090095D01*
X124324380Y-85994857D01*
X124324380Y-85042476D02*
X124324380Y-84947238D01*
X124372000Y-84852000D01*
X124419619Y-84804380D01*
X124514857Y-84756761D01*
X124705333Y-84709142D01*
X124943428Y-84709142D01*
X125133904Y-84756761D01*
X125229142Y-84804380D01*
X125276761Y-84852000D01*
X125324380Y-84947238D01*
X125324380Y-85042476D01*
X125276761Y-85137714D01*
X125229142Y-85185333D01*
X125133904Y-85232952D01*
X124943428Y-85280571D01*
X124705333Y-85280571D01*
X124514857Y-85232952D01*
X124419619Y-85185333D01*
X124372000Y-85137714D01*
X124324380Y-85042476D01*
X125324380Y-83756761D02*
X125324380Y-84328190D01*
X125324380Y-84042476D02*
X124324380Y-84042476D01*
X124467238Y-84137714D01*
X124562476Y-84232952D01*
X124610095Y-84328190D01*
X119735809Y-64395333D02*
X120116761Y-64395333D01*
X119659619Y-64623904D02*
X119926285Y-63823904D01*
X120192952Y-64623904D01*
X120878666Y-64623904D02*
X120421523Y-64623904D01*
X120650095Y-64623904D02*
X120650095Y-63823904D01*
X120573904Y-63938190D01*
X120497714Y-64014380D01*
X120421523Y-64052476D01*
X121412000Y-64890571D02*
X121412000Y-63747714D01*
X121945333Y-64395333D02*
X122326285Y-64395333D01*
X121869142Y-64623904D02*
X122135809Y-63823904D01*
X122402476Y-64623904D01*
X122631047Y-63900095D02*
X122669142Y-63862000D01*
X122745333Y-63823904D01*
X122935809Y-63823904D01*
X123012000Y-63862000D01*
X123050095Y-63900095D01*
X123088190Y-63976285D01*
X123088190Y-64052476D01*
X123050095Y-64166761D01*
X122592952Y-64623904D01*
X123088190Y-64623904D01*
X177076380Y-104384857D02*
X177190666Y-104422952D01*
X177228761Y-104461047D01*
X177266857Y-104537238D01*
X177266857Y-104651523D01*
X177228761Y-104727714D01*
X177190666Y-104765809D01*
X177114476Y-104803904D01*
X176809714Y-104803904D01*
X176809714Y-104003904D01*
X177076380Y-104003904D01*
X177152571Y-104042000D01*
X177190666Y-104080095D01*
X177228761Y-104156285D01*
X177228761Y-104232476D01*
X177190666Y-104308666D01*
X177152571Y-104346761D01*
X177076380Y-104384857D01*
X176809714Y-104384857D01*
X177533523Y-104003904D02*
X178028761Y-104003904D01*
X177762095Y-104308666D01*
X177876380Y-104308666D01*
X177952571Y-104346761D01*
X177990666Y-104384857D01*
X178028761Y-104461047D01*
X178028761Y-104651523D01*
X177990666Y-104727714D01*
X177952571Y-104765809D01*
X177876380Y-104803904D01*
X177647809Y-104803904D01*
X177571619Y-104765809D01*
X177533523Y-104727714D01*
X178409714Y-104803904D02*
X178562095Y-104803904D01*
X178638285Y-104765809D01*
X178676380Y-104727714D01*
X178752571Y-104613428D01*
X178790666Y-104461047D01*
X178790666Y-104156285D01*
X178752571Y-104080095D01*
X178714476Y-104042000D01*
X178638285Y-104003904D01*
X178485904Y-104003904D01*
X178409714Y-104042000D01*
X178371619Y-104080095D01*
X178333523Y-104156285D01*
X178333523Y-104346761D01*
X178371619Y-104422952D01*
X178409714Y-104461047D01*
X178485904Y-104499142D01*
X178638285Y-104499142D01*
X178714476Y-104461047D01*
X178752571Y-104422952D01*
X178790666Y-104346761D01*
X179324000Y-105070571D02*
X179324000Y-103927714D01*
X180162095Y-104384857D02*
X180276380Y-104422952D01*
X180314476Y-104461047D01*
X180352571Y-104537238D01*
X180352571Y-104651523D01*
X180314476Y-104727714D01*
X180276380Y-104765809D01*
X180200190Y-104803904D01*
X179895428Y-104803904D01*
X179895428Y-104003904D01*
X180162095Y-104003904D01*
X180238285Y-104042000D01*
X180276380Y-104080095D01*
X180314476Y-104156285D01*
X180314476Y-104232476D01*
X180276380Y-104308666D01*
X180238285Y-104346761D01*
X180162095Y-104384857D01*
X179895428Y-104384857D01*
X181038285Y-104270571D02*
X181038285Y-104803904D01*
X180847809Y-103965809D02*
X180657333Y-104537238D01*
X181152571Y-104537238D01*
X181609714Y-104003904D02*
X181685904Y-104003904D01*
X181762095Y-104042000D01*
X181800190Y-104080095D01*
X181838285Y-104156285D01*
X181876380Y-104308666D01*
X181876380Y-104499142D01*
X181838285Y-104651523D01*
X181800190Y-104727714D01*
X181762095Y-104765809D01*
X181685904Y-104803904D01*
X181609714Y-104803904D01*
X181533523Y-104765809D01*
X181495428Y-104727714D01*
X181457333Y-104651523D01*
X181419238Y-104499142D01*
X181419238Y-104308666D01*
X181457333Y-104156285D01*
X181495428Y-104080095D01*
X181533523Y-104042000D01*
X181609714Y-104003904D01*
X128676642Y-115044857D02*
X128790928Y-115082952D01*
X128829023Y-115121047D01*
X128867119Y-115197238D01*
X128867119Y-115311523D01*
X128829023Y-115387714D01*
X128790928Y-115425809D01*
X128714738Y-115463904D01*
X128409976Y-115463904D01*
X128409976Y-114663904D01*
X128676642Y-114663904D01*
X128752833Y-114702000D01*
X128790928Y-114740095D01*
X128829023Y-114816285D01*
X128829023Y-114892476D01*
X128790928Y-114968666D01*
X128752833Y-115006761D01*
X128676642Y-115044857D01*
X128409976Y-115044857D01*
X129362357Y-114663904D02*
X129514738Y-114663904D01*
X129590928Y-114702000D01*
X129667119Y-114778190D01*
X129705214Y-114930571D01*
X129705214Y-115197238D01*
X129667119Y-115349619D01*
X129590928Y-115425809D01*
X129514738Y-115463904D01*
X129362357Y-115463904D01*
X129286166Y-115425809D01*
X129209976Y-115349619D01*
X129171880Y-115197238D01*
X129171880Y-114930571D01*
X129209976Y-114778190D01*
X129286166Y-114702000D01*
X129362357Y-114663904D01*
X130009976Y-115235333D02*
X130390928Y-115235333D01*
X129933785Y-115463904D02*
X130200452Y-114663904D01*
X130467119Y-115463904D01*
X131190928Y-115463904D02*
X130924261Y-115082952D01*
X130733785Y-115463904D02*
X130733785Y-114663904D01*
X131038547Y-114663904D01*
X131114738Y-114702000D01*
X131152833Y-114740095D01*
X131190928Y-114816285D01*
X131190928Y-114930571D01*
X131152833Y-115006761D01*
X131114738Y-115044857D01*
X131038547Y-115082952D01*
X130733785Y-115082952D01*
X131533785Y-115463904D02*
X131533785Y-114663904D01*
X131724261Y-114663904D01*
X131838547Y-114702000D01*
X131914738Y-114778190D01*
X131952833Y-114854380D01*
X131990928Y-115006761D01*
X131990928Y-115121047D01*
X131952833Y-115273428D01*
X131914738Y-115349619D01*
X131838547Y-115425809D01*
X131724261Y-115463904D01*
X131533785Y-115463904D01*
X132333785Y-115387714D02*
X132371880Y-115425809D01*
X132333785Y-115463904D01*
X132295690Y-115425809D01*
X132333785Y-115387714D01*
X132333785Y-115463904D01*
X132333785Y-114968666D02*
X132371880Y-115006761D01*
X132333785Y-115044857D01*
X132295690Y-115006761D01*
X132333785Y-114968666D01*
X132333785Y-115044857D01*
X128371880Y-116675809D02*
X128486166Y-116713904D01*
X128676642Y-116713904D01*
X128752833Y-116675809D01*
X128790928Y-116637714D01*
X128829023Y-116561523D01*
X128829023Y-116485333D01*
X128790928Y-116409142D01*
X128752833Y-116371047D01*
X128676642Y-116332952D01*
X128524261Y-116294857D01*
X128448071Y-116256761D01*
X128409976Y-116218666D01*
X128371880Y-116142476D01*
X128371880Y-116066285D01*
X128409976Y-115990095D01*
X128448071Y-115952000D01*
X128524261Y-115913904D01*
X128714738Y-115913904D01*
X128829023Y-115952000D01*
X129171880Y-116713904D02*
X129171880Y-115913904D01*
X129629023Y-116713904D01*
X129629023Y-115913904D01*
X130009976Y-116637714D02*
X130048071Y-116675809D01*
X130009976Y-116713904D01*
X129971880Y-116675809D01*
X130009976Y-116637714D01*
X130009976Y-116713904D01*
X130009976Y-116218666D02*
X130048071Y-116256761D01*
X130009976Y-116294857D01*
X129971880Y-116256761D01*
X130009976Y-116218666D01*
X130009976Y-116294857D01*
D16*
X170766476Y-67470380D02*
X170766476Y-68184666D01*
X170718857Y-68327523D01*
X170623619Y-68422761D01*
X170480761Y-68470380D01*
X170385523Y-68470380D01*
X171766476Y-68470380D02*
X171195047Y-68470380D01*
X171480761Y-68470380D02*
X171480761Y-67470380D01*
X171385523Y-67613238D01*
X171290285Y-67708476D01*
X171195047Y-67756095D01*
X172385523Y-67470380D02*
X172480761Y-67470380D01*
X172576000Y-67518000D01*
X172623619Y-67565619D01*
X172671238Y-67660857D01*
X172718857Y-67851333D01*
X172718857Y-68089428D01*
X172671238Y-68279904D01*
X172623619Y-68375142D01*
X172576000Y-68422761D01*
X172480761Y-68470380D01*
X172385523Y-68470380D01*
X172290285Y-68422761D01*
X172242666Y-68375142D01*
X172195047Y-68279904D01*
X172147428Y-68089428D01*
X172147428Y-67851333D01*
X172195047Y-67660857D01*
X172242666Y-67565619D01*
X172290285Y-67518000D01*
X172385523Y-67470380D01*
X221272476Y-68232380D02*
X221272476Y-68946666D01*
X221224857Y-69089523D01*
X221129619Y-69184761D01*
X220986761Y-69232380D01*
X220891523Y-69232380D01*
X222272476Y-69232380D02*
X221701047Y-69232380D01*
X221986761Y-69232380D02*
X221986761Y-68232380D01*
X221891523Y-68375238D01*
X221796285Y-68470476D01*
X221701047Y-68518095D01*
X222605809Y-68232380D02*
X223224857Y-68232380D01*
X222891523Y-68613333D01*
X223034380Y-68613333D01*
X223129619Y-68660952D01*
X223177238Y-68708571D01*
X223224857Y-68803809D01*
X223224857Y-69041904D01*
X223177238Y-69137142D01*
X223129619Y-69184761D01*
X223034380Y-69232380D01*
X222748666Y-69232380D01*
X222653428Y-69184761D01*
X222605809Y-69137142D01*
X138381476Y-67470380D02*
X138381476Y-68184666D01*
X138333857Y-68327523D01*
X138238619Y-68422761D01*
X138095761Y-68470380D01*
X138000523Y-68470380D01*
X139381476Y-68470380D02*
X138810047Y-68470380D01*
X139095761Y-68470380D02*
X139095761Y-67470380D01*
X139000523Y-67613238D01*
X138905285Y-67708476D01*
X138810047Y-67756095D01*
X139762428Y-67565619D02*
X139810047Y-67518000D01*
X139905285Y-67470380D01*
X140143380Y-67470380D01*
X140238619Y-67518000D01*
X140286238Y-67565619D01*
X140333857Y-67660857D01*
X140333857Y-67756095D01*
X140286238Y-67898952D01*
X139714809Y-68470380D01*
X140333857Y-68470380D01*
X129112476Y-103138380D02*
X129112476Y-103852666D01*
X129064857Y-103995523D01*
X128969619Y-104090761D01*
X128826761Y-104138380D01*
X128731523Y-104138380D01*
X130112476Y-104138380D02*
X129541047Y-104138380D01*
X129826761Y-104138380D02*
X129826761Y-103138380D01*
X129731523Y-103281238D01*
X129636285Y-103376476D01*
X129541047Y-103424095D01*
X131064857Y-104138380D02*
X130493428Y-104138380D01*
X130779142Y-104138380D02*
X130779142Y-103138380D01*
X130683904Y-103281238D01*
X130588666Y-103376476D01*
X130493428Y-103424095D01*
X145844666Y-103138380D02*
X145844666Y-103852666D01*
X145797047Y-103995523D01*
X145701809Y-104090761D01*
X145558952Y-104138380D01*
X145463714Y-104138380D01*
X146368476Y-104138380D02*
X146558952Y-104138380D01*
X146654190Y-104090761D01*
X146701809Y-104043142D01*
X146797047Y-103900285D01*
X146844666Y-103709809D01*
X146844666Y-103328857D01*
X146797047Y-103233619D01*
X146749428Y-103186000D01*
X146654190Y-103138380D01*
X146463714Y-103138380D01*
X146368476Y-103186000D01*
X146320857Y-103233619D01*
X146273238Y-103328857D01*
X146273238Y-103566952D01*
X146320857Y-103662190D01*
X146368476Y-103709809D01*
X146463714Y-103757428D01*
X146654190Y-103757428D01*
X146749428Y-103709809D01*
X146797047Y-103662190D01*
X146844666Y-103566952D01*
X253570476Y-68232380D02*
X253570476Y-68946666D01*
X253522857Y-69089523D01*
X253427619Y-69184761D01*
X253284761Y-69232380D01*
X253189523Y-69232380D01*
X254570476Y-69232380D02*
X253999047Y-69232380D01*
X254284761Y-69232380D02*
X254284761Y-68232380D01*
X254189523Y-68375238D01*
X254094285Y-68470476D01*
X253999047Y-68518095D01*
X255427619Y-68232380D02*
X255237142Y-68232380D01*
X255141904Y-68280000D01*
X255094285Y-68327619D01*
X254999047Y-68470476D01*
X254951428Y-68660952D01*
X254951428Y-69041904D01*
X254999047Y-69137142D01*
X255046666Y-69184761D01*
X255141904Y-69232380D01*
X255332380Y-69232380D01*
X255427619Y-69184761D01*
X255475238Y-69137142D01*
X255522857Y-69041904D01*
X255522857Y-68803809D01*
X255475238Y-68708571D01*
X255427619Y-68660952D01*
X255332380Y-68613333D01*
X255141904Y-68613333D01*
X255046666Y-68660952D01*
X254999047Y-68708571D01*
X254951428Y-68803809D01*
X237441476Y-68232380D02*
X237441476Y-68946666D01*
X237393857Y-69089523D01*
X237298619Y-69184761D01*
X237155761Y-69232380D01*
X237060523Y-69232380D01*
X238441476Y-69232380D02*
X237870047Y-69232380D01*
X238155761Y-69232380D02*
X238155761Y-68232380D01*
X238060523Y-68375238D01*
X237965285Y-68470476D01*
X237870047Y-68518095D01*
X239298619Y-68565714D02*
X239298619Y-69232380D01*
X239060523Y-68184761D02*
X238822428Y-68899047D01*
X239441476Y-68899047D01*
X155767476Y-83405904D02*
X155767476Y-84053523D01*
X155805571Y-84129714D01*
X155843666Y-84167809D01*
X155919857Y-84205904D01*
X156072238Y-84205904D01*
X156148428Y-84167809D01*
X156186523Y-84129714D01*
X156224619Y-84053523D01*
X156224619Y-83405904D01*
X156719857Y-83748761D02*
X156643666Y-83710666D01*
X156605571Y-83672571D01*
X156567476Y-83596380D01*
X156567476Y-83558285D01*
X156605571Y-83482095D01*
X156643666Y-83444000D01*
X156719857Y-83405904D01*
X156872238Y-83405904D01*
X156948428Y-83444000D01*
X156986523Y-83482095D01*
X157024619Y-83558285D01*
X157024619Y-83596380D01*
X156986523Y-83672571D01*
X156948428Y-83710666D01*
X156872238Y-83748761D01*
X156719857Y-83748761D01*
X156643666Y-83786857D01*
X156605571Y-83824952D01*
X156567476Y-83901142D01*
X156567476Y-84053523D01*
X156605571Y-84129714D01*
X156643666Y-84167809D01*
X156719857Y-84205904D01*
X156872238Y-84205904D01*
X156948428Y-84167809D01*
X156986523Y-84129714D01*
X157024619Y-84053523D01*
X157024619Y-83901142D01*
X156986523Y-83824952D01*
X156948428Y-83786857D01*
X156872238Y-83748761D01*
X152980095Y-91853380D02*
X152980095Y-92662904D01*
X153027714Y-92758142D01*
X153075333Y-92805761D01*
X153170571Y-92853380D01*
X153361047Y-92853380D01*
X153456285Y-92805761D01*
X153503904Y-92758142D01*
X153551523Y-92662904D01*
X153551523Y-91853380D01*
X153932476Y-91853380D02*
X154599142Y-91853380D01*
X154170571Y-92853380D01*
X126446464Y-99190031D02*
X127256478Y-99190031D01*
X127351774Y-99142383D01*
X127399422Y-99094735D01*
X127447070Y-98999439D01*
X127447070Y-98808848D01*
X127399422Y-98713552D01*
X127351774Y-98665904D01*
X127256478Y-98618256D01*
X126446464Y-98618256D01*
X126446464Y-97712946D02*
X126446464Y-97903538D01*
X126494112Y-97998833D01*
X126541759Y-98046481D01*
X126684703Y-98141777D01*
X126875295Y-98189425D01*
X127256478Y-98189425D01*
X127351774Y-98141777D01*
X127399422Y-98094129D01*
X127447070Y-97998833D01*
X127447070Y-97808242D01*
X127399422Y-97712946D01*
X127351774Y-97665298D01*
X127256478Y-97617650D01*
X127018238Y-97617650D01*
X126922943Y-97665298D01*
X126875295Y-97712946D01*
X126827647Y-97808242D01*
X126827647Y-97998833D01*
X126875295Y-98094129D01*
X126922943Y-98141777D01*
X127018238Y-98189425D01*
X47179523Y-67494380D02*
X47179523Y-68303904D01*
X47227142Y-68399142D01*
X47274761Y-68446761D01*
X47370000Y-68494380D01*
X47560476Y-68494380D01*
X47655714Y-68446761D01*
X47703333Y-68399142D01*
X47750952Y-68303904D01*
X47750952Y-67494380D01*
X48750952Y-68494380D02*
X48179523Y-68494380D01*
X48465238Y-68494380D02*
X48465238Y-67494380D01*
X48370000Y-67637238D01*
X48274761Y-67732476D01*
X48179523Y-67780095D01*
X49084285Y-67494380D02*
X49703333Y-67494380D01*
X49370000Y-67875333D01*
X49512857Y-67875333D01*
X49608095Y-67922952D01*
X49655714Y-67970571D01*
X49703333Y-68065809D01*
X49703333Y-68303904D01*
X49655714Y-68399142D01*
X49608095Y-68446761D01*
X49512857Y-68494380D01*
X49227142Y-68494380D01*
X49131904Y-68446761D01*
X49084285Y-68399142D01*
X50322380Y-67494380D02*
X50417619Y-67494380D01*
X50512857Y-67542000D01*
X50560476Y-67589619D01*
X50608095Y-67684857D01*
X50655714Y-67875333D01*
X50655714Y-68113428D01*
X50608095Y-68303904D01*
X50560476Y-68399142D01*
X50512857Y-68446761D01*
X50417619Y-68494380D01*
X50322380Y-68494380D01*
X50227142Y-68446761D01*
X50179523Y-68399142D01*
X50131904Y-68303904D01*
X50084285Y-68113428D01*
X50084285Y-67875333D01*
X50131904Y-67684857D01*
X50179523Y-67589619D01*
X50227142Y-67542000D01*
X50322380Y-67494380D01*
X51608095Y-68494380D02*
X51036666Y-68494380D01*
X51322380Y-68494380D02*
X51322380Y-67494380D01*
X51227142Y-67637238D01*
X51131904Y-67732476D01*
X51036666Y-67780095D01*
X54783666Y-67724380D02*
X54783666Y-68438666D01*
X54736047Y-68581523D01*
X54640809Y-68676761D01*
X54497952Y-68724380D01*
X54402714Y-68724380D01*
X55783666Y-68724380D02*
X55212238Y-68724380D01*
X55497952Y-68724380D02*
X55497952Y-67724380D01*
X55402714Y-67867238D01*
X55307476Y-67962476D01*
X55212238Y-68010095D01*
X70912666Y-67724380D02*
X70912666Y-68438666D01*
X70865047Y-68581523D01*
X70769809Y-68676761D01*
X70626952Y-68724380D01*
X70531714Y-68724380D01*
X71341238Y-67819619D02*
X71388857Y-67772000D01*
X71484095Y-67724380D01*
X71722190Y-67724380D01*
X71817428Y-67772000D01*
X71865047Y-67819619D01*
X71912666Y-67914857D01*
X71912666Y-68010095D01*
X71865047Y-68152952D01*
X71293619Y-68724380D01*
X71912666Y-68724380D01*
X87041666Y-67724380D02*
X87041666Y-68438666D01*
X86994047Y-68581523D01*
X86898809Y-68676761D01*
X86755952Y-68724380D01*
X86660714Y-68724380D01*
X87422619Y-67724380D02*
X88041666Y-67724380D01*
X87708333Y-68105333D01*
X87851190Y-68105333D01*
X87946428Y-68152952D01*
X87994047Y-68200571D01*
X88041666Y-68295809D01*
X88041666Y-68533904D01*
X87994047Y-68629142D01*
X87946428Y-68676761D01*
X87851190Y-68724380D01*
X87565476Y-68724380D01*
X87470238Y-68676761D01*
X87422619Y-68629142D01*
X155113666Y-67470380D02*
X155113666Y-68184666D01*
X155066047Y-68327523D01*
X154970809Y-68422761D01*
X154827952Y-68470380D01*
X154732714Y-68470380D01*
X156018428Y-67803714D02*
X156018428Y-68470380D01*
X155780333Y-67422761D02*
X155542238Y-68137047D01*
X156161285Y-68137047D01*
X77518666Y-103519380D02*
X77518666Y-104233666D01*
X77471047Y-104376523D01*
X77375809Y-104471761D01*
X77232952Y-104519380D01*
X77137714Y-104519380D01*
X78137714Y-103947952D02*
X78042476Y-103900333D01*
X77994857Y-103852714D01*
X77947238Y-103757476D01*
X77947238Y-103709857D01*
X77994857Y-103614619D01*
X78042476Y-103567000D01*
X78137714Y-103519380D01*
X78328190Y-103519380D01*
X78423428Y-103567000D01*
X78471047Y-103614619D01*
X78518666Y-103709857D01*
X78518666Y-103757476D01*
X78471047Y-103852714D01*
X78423428Y-103900333D01*
X78328190Y-103947952D01*
X78137714Y-103947952D01*
X78042476Y-103995571D01*
X77994857Y-104043190D01*
X77947238Y-104138428D01*
X77947238Y-104328904D01*
X77994857Y-104424142D01*
X78042476Y-104471761D01*
X78137714Y-104519380D01*
X78328190Y-104519380D01*
X78423428Y-104471761D01*
X78471047Y-104424142D01*
X78518666Y-104328904D01*
X78518666Y-104138428D01*
X78471047Y-104043190D01*
X78423428Y-103995571D01*
X78328190Y-103947952D01*
X61389666Y-103519380D02*
X61389666Y-104233666D01*
X61342047Y-104376523D01*
X61246809Y-104471761D01*
X61103952Y-104519380D01*
X61008714Y-104519380D01*
X61770619Y-103519380D02*
X62437285Y-103519380D01*
X62008714Y-104519380D01*
X45260666Y-103519380D02*
X45260666Y-104233666D01*
X45213047Y-104376523D01*
X45117809Y-104471761D01*
X44974952Y-104519380D01*
X44879714Y-104519380D01*
X46165428Y-103519380D02*
X45974952Y-103519380D01*
X45879714Y-103567000D01*
X45832095Y-103614619D01*
X45736857Y-103757476D01*
X45689238Y-103947952D01*
X45689238Y-104328904D01*
X45736857Y-104424142D01*
X45784476Y-104471761D01*
X45879714Y-104519380D01*
X46070190Y-104519380D01*
X46165428Y-104471761D01*
X46213047Y-104424142D01*
X46260666Y-104328904D01*
X46260666Y-104090809D01*
X46213047Y-103995571D01*
X46165428Y-103947952D01*
X46070190Y-103900333D01*
X45879714Y-103900333D01*
X45784476Y-103947952D01*
X45736857Y-103995571D01*
X45689238Y-104090809D01*
D11*
X148334357Y-70539333D02*
X148286738Y-70491714D01*
X148239119Y-70348857D01*
X148239119Y-70253619D01*
X148286738Y-70110761D01*
X148381976Y-70015523D01*
X148477214Y-69967904D01*
X148667690Y-69920285D01*
X148810547Y-69920285D01*
X149001023Y-69967904D01*
X149096261Y-70015523D01*
X149191500Y-70110761D01*
X149239119Y-70253619D01*
X149239119Y-70348857D01*
X149191500Y-70491714D01*
X149143880Y-70539333D01*
X149239119Y-70872666D02*
X149239119Y-71491714D01*
X148858166Y-71158380D01*
X148858166Y-71301238D01*
X148810547Y-71396476D01*
X148762928Y-71444095D01*
X148667690Y-71491714D01*
X148429595Y-71491714D01*
X148334357Y-71444095D01*
X148286738Y-71396476D01*
X148239119Y-71301238D01*
X148239119Y-71015523D01*
X148286738Y-70920285D01*
X148334357Y-70872666D01*
X45221142Y-78017666D02*
X45268761Y-78065285D01*
X45316380Y-78208142D01*
X45316380Y-78303380D01*
X45268761Y-78446238D01*
X45173523Y-78541476D01*
X45078285Y-78589095D01*
X44887809Y-78636714D01*
X44744952Y-78636714D01*
X44554476Y-78589095D01*
X44459238Y-78541476D01*
X44364000Y-78446238D01*
X44316380Y-78303380D01*
X44316380Y-78208142D01*
X44364000Y-78065285D01*
X44411619Y-78017666D01*
X44411619Y-77636714D02*
X44364000Y-77589095D01*
X44316380Y-77493857D01*
X44316380Y-77255761D01*
X44364000Y-77160523D01*
X44411619Y-77112904D01*
X44506857Y-77065285D01*
X44602095Y-77065285D01*
X44744952Y-77112904D01*
X45316380Y-77684333D01*
X45316380Y-77065285D01*
X211652142Y-88076166D02*
X211699761Y-88123785D01*
X211747380Y-88266642D01*
X211747380Y-88361880D01*
X211699761Y-88504738D01*
X211604523Y-88599976D01*
X211509285Y-88647595D01*
X211318809Y-88695214D01*
X211175952Y-88695214D01*
X210985476Y-88647595D01*
X210890238Y-88599976D01*
X210795000Y-88504738D01*
X210747380Y-88361880D01*
X210747380Y-88266642D01*
X210795000Y-88123785D01*
X210842619Y-88076166D01*
X211747380Y-87123785D02*
X211747380Y-87695214D01*
X211747380Y-87409500D02*
X210747380Y-87409500D01*
X210890238Y-87504738D01*
X210985476Y-87599976D01*
X211033095Y-87695214D01*
D16*
X151568380Y-76551904D02*
X152377904Y-76551904D01*
X152473142Y-76504285D01*
X152520761Y-76456666D01*
X152568380Y-76361428D01*
X152568380Y-76170952D01*
X152520761Y-76075714D01*
X152473142Y-76028095D01*
X152377904Y-75980476D01*
X151568380Y-75980476D01*
X151568380Y-75599523D02*
X151568380Y-74980476D01*
X151949333Y-75313809D01*
X151949333Y-75170952D01*
X151996952Y-75075714D01*
X152044571Y-75028095D01*
X152139809Y-74980476D01*
X152377904Y-74980476D01*
X152473142Y-75028095D01*
X152520761Y-75075714D01*
X152568380Y-75170952D01*
X152568380Y-75456666D01*
X152520761Y-75551904D01*
X152473142Y-75599523D01*
X48608095Y-75114380D02*
X48608095Y-75923904D01*
X48655714Y-76019142D01*
X48703333Y-76066761D01*
X48798571Y-76114380D01*
X48989047Y-76114380D01*
X49084285Y-76066761D01*
X49131904Y-76019142D01*
X49179523Y-75923904D01*
X49179523Y-75114380D01*
X49608095Y-75209619D02*
X49655714Y-75162000D01*
X49750952Y-75114380D01*
X49989047Y-75114380D01*
X50084285Y-75162000D01*
X50131904Y-75209619D01*
X50179523Y-75304857D01*
X50179523Y-75400095D01*
X50131904Y-75542952D01*
X49560476Y-76114380D01*
X50179523Y-76114380D01*
M02*
