G04 #@! TF.GenerationSoftware,KiCad,Pcbnew,(5.1.4-0-10_14)*
G04 #@! TF.CreationDate,2021-04-30T21:42:10-07:00*
G04 #@! TF.ProjectId,prop,70726f70-2e6b-4696-9361-645f70636258,rev?*
G04 #@! TF.SameCoordinates,Original*
G04 #@! TF.FileFunction,Copper,L4,Bot*
G04 #@! TF.FilePolarity,Positive*
%FSLAX46Y46*%
G04 Gerber Fmt 4.6, Leading zero omitted, Abs format (unit mm)*
G04 Created by KiCad (PCBNEW (5.1.4-0-10_14)) date 2021-04-30 21:42:10*
%MOMM*%
%LPD*%
G04 APERTURE LIST*
%ADD10O,2.700000X3.700000*%
%ADD11C,0.100000*%
%ADD12C,2.700000*%
%ADD13C,3.175000*%
%ADD14C,1.371600*%
%ADD15R,1.508000X1.508000*%
%ADD16C,1.508000*%
%ADD17C,0.800000*%
%ADD18C,0.558800*%
%ADD19C,0.398780*%
%ADD20C,0.203200*%
%ADD21C,0.254000*%
G04 APERTURE END LIST*
D10*
X168275000Y-97243000D03*
D11*
G36*
X169399503Y-100894204D02*
G01*
X169423772Y-100897804D01*
X169447570Y-100903765D01*
X169470670Y-100912030D01*
X169492849Y-100922520D01*
X169513892Y-100935133D01*
X169533598Y-100949748D01*
X169551776Y-100966224D01*
X169568252Y-100984402D01*
X169582867Y-101004108D01*
X169595480Y-101025151D01*
X169605970Y-101047330D01*
X169614235Y-101070430D01*
X169620196Y-101094228D01*
X169623796Y-101118497D01*
X169625000Y-101143001D01*
X169625000Y-104342999D01*
X169623796Y-104367503D01*
X169620196Y-104391772D01*
X169614235Y-104415570D01*
X169605970Y-104438670D01*
X169595480Y-104460849D01*
X169582867Y-104481892D01*
X169568252Y-104501598D01*
X169551776Y-104519776D01*
X169533598Y-104536252D01*
X169513892Y-104550867D01*
X169492849Y-104563480D01*
X169470670Y-104573970D01*
X169447570Y-104582235D01*
X169423772Y-104588196D01*
X169399503Y-104591796D01*
X169374999Y-104593000D01*
X167175001Y-104593000D01*
X167150497Y-104591796D01*
X167126228Y-104588196D01*
X167102430Y-104582235D01*
X167079330Y-104573970D01*
X167057151Y-104563480D01*
X167036108Y-104550867D01*
X167016402Y-104536252D01*
X166998224Y-104519776D01*
X166981748Y-104501598D01*
X166967133Y-104481892D01*
X166954520Y-104460849D01*
X166944030Y-104438670D01*
X166935765Y-104415570D01*
X166929804Y-104391772D01*
X166926204Y-104367503D01*
X166925000Y-104342999D01*
X166925000Y-101143001D01*
X166926204Y-101118497D01*
X166929804Y-101094228D01*
X166935765Y-101070430D01*
X166944030Y-101047330D01*
X166954520Y-101025151D01*
X166967133Y-101004108D01*
X166981748Y-100984402D01*
X166998224Y-100966224D01*
X167016402Y-100949748D01*
X167036108Y-100935133D01*
X167057151Y-100922520D01*
X167079330Y-100912030D01*
X167102430Y-100903765D01*
X167126228Y-100897804D01*
X167150497Y-100894204D01*
X167175001Y-100893000D01*
X169374999Y-100893000D01*
X169399503Y-100894204D01*
X169399503Y-100894204D01*
G37*
D12*
X168275000Y-102743000D03*
D13*
X38481000Y-58293000D03*
D14*
X96631000Y-96233000D03*
X96631000Y-86233000D03*
X94631000Y-102233000D03*
X94631000Y-72233000D03*
X96631000Y-98233000D03*
X94631000Y-100233000D03*
X96631000Y-92233000D03*
X94631000Y-68233100D03*
X96631000Y-100233000D03*
X96631000Y-84233000D03*
X94631000Y-96233000D03*
X96631000Y-94233000D03*
X94631000Y-64233100D03*
X96631000Y-90233000D03*
X94631000Y-88233000D03*
X96631000Y-102233000D03*
X94631000Y-80233000D03*
X94631000Y-76233000D03*
X96631000Y-82233000D03*
X96631000Y-72233000D03*
X94631000Y-70233100D03*
X96631000Y-80233000D03*
X96631000Y-70233100D03*
X94631000Y-78233000D03*
X94631000Y-90233000D03*
X94631000Y-94233000D03*
X96631000Y-88233000D03*
X96631000Y-78233000D03*
X94631000Y-84233000D03*
X94631000Y-74233000D03*
X94631000Y-66233100D03*
X96631000Y-74233000D03*
X96631000Y-68233100D03*
X96631000Y-66233100D03*
X94631000Y-86233000D03*
X94631000Y-98233000D03*
X94631000Y-92233000D03*
X94631000Y-82233000D03*
X96631000Y-64233100D03*
X96631000Y-76233000D03*
X36211000Y-73233000D03*
X36211000Y-83233000D03*
X38211000Y-67233000D03*
X38211000Y-97233000D03*
X36211000Y-71233000D03*
X38211000Y-69233000D03*
X36211000Y-77233000D03*
X38211000Y-101232900D03*
X36211000Y-69233000D03*
X36211000Y-85233000D03*
X38211000Y-73233000D03*
X36211000Y-75233000D03*
X38211000Y-105232900D03*
X36211000Y-79233000D03*
X38211000Y-81233000D03*
X36211000Y-67233000D03*
X38211000Y-89233000D03*
X38211000Y-93233000D03*
X36211000Y-87233000D03*
X36211000Y-97233000D03*
X38211000Y-99232900D03*
X36211000Y-89233000D03*
X36211000Y-99232900D03*
X38211000Y-91233000D03*
X38211000Y-79233000D03*
X38211000Y-75233000D03*
X36211000Y-81233000D03*
X36211000Y-91233000D03*
X38211000Y-85233000D03*
X38211000Y-95233000D03*
X38211000Y-103232900D03*
X36211000Y-95233000D03*
X36211000Y-101232900D03*
X36211000Y-103232900D03*
X38211000Y-83233000D03*
X38211000Y-71233000D03*
X38211000Y-77233000D03*
X38211000Y-87233000D03*
X36211000Y-105232900D03*
X36211000Y-93233000D03*
D13*
X205486000Y-58674000D03*
D14*
X263636000Y-96614000D03*
X263636000Y-86614000D03*
X261636000Y-102614000D03*
X261636000Y-72614000D03*
X263636000Y-98614000D03*
X261636000Y-100614000D03*
X263636000Y-92614000D03*
X261636000Y-68614100D03*
X263636000Y-100614000D03*
X263636000Y-84614000D03*
X261636000Y-96614000D03*
X263636000Y-94614000D03*
X261636000Y-64614100D03*
X263636000Y-90614000D03*
X261636000Y-88614000D03*
X263636000Y-102614000D03*
X261636000Y-80614000D03*
X261636000Y-76614000D03*
X263636000Y-82614000D03*
X263636000Y-72614000D03*
X261636000Y-70614100D03*
X263636000Y-80614000D03*
X263636000Y-70614100D03*
X261636000Y-78614000D03*
X261636000Y-90614000D03*
X261636000Y-94614000D03*
X263636000Y-88614000D03*
X263636000Y-78614000D03*
X261636000Y-84614000D03*
X261636000Y-74614000D03*
X261636000Y-66614100D03*
X263636000Y-74614000D03*
X263636000Y-68614100D03*
X263636000Y-66614100D03*
X261636000Y-86614000D03*
X261636000Y-98614000D03*
X261636000Y-92614000D03*
X261636000Y-82614000D03*
X263636000Y-64614100D03*
X263636000Y-76614000D03*
X203216000Y-73614000D03*
X203216000Y-83614000D03*
X205216000Y-67614000D03*
X205216000Y-97614000D03*
X203216000Y-71614000D03*
X205216000Y-69614000D03*
X203216000Y-77614000D03*
X205216000Y-101613900D03*
X203216000Y-69614000D03*
X203216000Y-85614000D03*
X205216000Y-73614000D03*
X203216000Y-75614000D03*
X205216000Y-105613900D03*
X203216000Y-79614000D03*
X205216000Y-81614000D03*
X203216000Y-67614000D03*
X205216000Y-89614000D03*
X205216000Y-93614000D03*
X203216000Y-87614000D03*
X203216000Y-97614000D03*
X205216000Y-99613900D03*
X203216000Y-89614000D03*
X203216000Y-99613900D03*
X205216000Y-91614000D03*
X205216000Y-79614000D03*
X205216000Y-75614000D03*
X203216000Y-81614000D03*
X203216000Y-91614000D03*
X205216000Y-85614000D03*
X205216000Y-95614000D03*
X205216000Y-103613900D03*
X203216000Y-95614000D03*
X203216000Y-101613900D03*
X203216000Y-103613900D03*
X205216000Y-83614000D03*
X205216000Y-71614000D03*
X205216000Y-77614000D03*
X205216000Y-87614000D03*
X203216000Y-105613900D03*
X203216000Y-93614000D03*
X120412000Y-92852000D03*
X120412000Y-104851900D03*
X122412000Y-86852000D03*
X122412000Y-76852000D03*
X122412000Y-70852000D03*
X122412000Y-82852000D03*
X120412000Y-102851900D03*
X120412000Y-100851900D03*
X120412000Y-94852000D03*
X122412000Y-102851900D03*
X122412000Y-94852000D03*
X122412000Y-84852000D03*
X120412000Y-90852000D03*
X120412000Y-80852000D03*
X122412000Y-74852000D03*
X122412000Y-78852000D03*
X122412000Y-90852000D03*
X120412000Y-98851900D03*
X120412000Y-88852000D03*
X122412000Y-98851900D03*
X120412000Y-96852000D03*
X120412000Y-86852000D03*
X122412000Y-92852000D03*
X122412000Y-88852000D03*
X120412000Y-66852000D03*
X122412000Y-80852000D03*
X120412000Y-78852000D03*
X122412000Y-104851900D03*
X120412000Y-74852000D03*
X122412000Y-72852000D03*
X120412000Y-84852000D03*
X120412000Y-68852000D03*
X122412000Y-100851900D03*
X120412000Y-76852000D03*
X122412000Y-68852000D03*
X120412000Y-70852000D03*
X122412000Y-96852000D03*
X122412000Y-66852000D03*
X120412000Y-82852000D03*
X120412000Y-72852000D03*
X180832000Y-75852000D03*
X180832000Y-63852100D03*
X178832000Y-81852000D03*
X178832000Y-91852000D03*
X178832000Y-97852000D03*
X178832000Y-85852000D03*
X180832000Y-65852100D03*
X180832000Y-67852100D03*
X180832000Y-73852000D03*
X178832000Y-65852100D03*
X178832000Y-73852000D03*
X178832000Y-83852000D03*
X180832000Y-77852000D03*
X180832000Y-87852000D03*
X178832000Y-93852000D03*
X178832000Y-89852000D03*
X178832000Y-77852000D03*
X180832000Y-69852100D03*
X180832000Y-79852000D03*
X178832000Y-69852100D03*
X180832000Y-71852000D03*
X180832000Y-81852000D03*
X178832000Y-75852000D03*
X178832000Y-79852000D03*
X180832000Y-101852000D03*
X178832000Y-87852000D03*
X180832000Y-89852000D03*
X178832000Y-63852100D03*
X180832000Y-93852000D03*
X178832000Y-95852000D03*
X180832000Y-83852000D03*
X180832000Y-99852000D03*
X178832000Y-67852100D03*
X180832000Y-91852000D03*
X178832000Y-99852000D03*
X180832000Y-97852000D03*
X178832000Y-71852000D03*
X178832000Y-101852000D03*
X180832000Y-85852000D03*
X180832000Y-95852000D03*
D13*
X122682000Y-57912000D03*
D15*
X171251000Y-59533000D03*
D16*
X167751000Y-59533000D03*
X164251000Y-59533000D03*
X160751000Y-59533000D03*
X211257000Y-60295000D03*
X214757000Y-60295000D03*
X218257000Y-60295000D03*
D15*
X221757000Y-60295000D03*
X138866000Y-59533000D03*
D16*
X135366000Y-59533000D03*
X131866000Y-59533000D03*
X128366000Y-59533000D03*
X140747000Y-112171000D03*
X137247000Y-112171000D03*
X133747000Y-112171000D03*
D15*
X130247000Y-112171000D03*
X146503000Y-112171000D03*
D16*
X150003000Y-112171000D03*
X153503000Y-112171000D03*
X157003000Y-112171000D03*
X243555000Y-60295000D03*
X247055000Y-60295000D03*
X250555000Y-60295000D03*
D15*
X254055000Y-60295000D03*
X237926000Y-60295000D03*
D16*
X234426000Y-60295000D03*
X230926000Y-60295000D03*
X227426000Y-60295000D03*
D15*
X54792000Y-59787000D03*
D16*
X51292000Y-59787000D03*
X47792000Y-59787000D03*
X44292000Y-59787000D03*
X60421000Y-59787000D03*
X63921000Y-59787000D03*
X67421000Y-59787000D03*
D15*
X70921000Y-59787000D03*
X87050000Y-59787000D03*
D16*
X83550000Y-59787000D03*
X80050000Y-59787000D03*
X76550000Y-59787000D03*
X144622000Y-59533000D03*
X148122000Y-59533000D03*
X151622000Y-59533000D03*
D15*
X155122000Y-59533000D03*
D16*
X88677000Y-112552000D03*
X85177000Y-112552000D03*
X81677000Y-112552000D03*
D15*
X78177000Y-112552000D03*
X62048000Y-112552000D03*
D16*
X65548000Y-112552000D03*
X69048000Y-112552000D03*
X72548000Y-112552000D03*
X56419000Y-112552000D03*
X52919000Y-112552000D03*
X49419000Y-112552000D03*
D15*
X45919000Y-112552000D03*
D17*
X223012000Y-74676000D03*
X239903000Y-74803000D03*
X247650000Y-80772000D03*
X231140000Y-81026000D03*
X217932000Y-84582000D03*
X213106000Y-89916000D03*
X255905000Y-74803000D03*
X248793000Y-91313000D03*
X234518000Y-90678000D03*
X228854000Y-96774000D03*
X228854000Y-103124000D03*
X211257000Y-64953000D03*
X218257000Y-64953000D03*
X227426000Y-64674000D03*
X234426000Y-64500000D03*
X243555000Y-64231000D03*
X250555000Y-63865000D03*
X50038000Y-63754000D03*
X44292000Y-65436000D03*
X57785000Y-72009000D03*
X45847000Y-77089000D03*
X57658000Y-77216000D03*
X71501000Y-74041000D03*
X74041000Y-72263000D03*
X73914000Y-80518000D03*
X86106000Y-77978000D03*
X67310000Y-63246000D03*
X60421000Y-63215000D03*
X76550000Y-63342000D03*
X83566000Y-63246000D03*
X73660000Y-92710000D03*
X66586780Y-92202000D03*
X74168000Y-103632000D03*
X91440000Y-97028000D03*
X41148000Y-102616000D03*
X50292000Y-92710000D03*
X49419000Y-108601000D03*
X56419000Y-108489000D03*
X65548000Y-108474000D03*
X72548000Y-108554000D03*
X81677000Y-108601000D03*
X88677000Y-108489000D03*
X131866000Y-64984000D03*
X151622000Y-64024000D03*
X164251000Y-63921000D03*
X148590000Y-74676000D03*
X144780000Y-84836000D03*
X153670000Y-85852000D03*
X132588000Y-80264000D03*
X137247000Y-108371000D03*
X130556000Y-103124000D03*
X141986000Y-103378000D03*
X151562000Y-103048000D03*
X158496000Y-102768000D03*
X160771000Y-95261000D03*
X139573000Y-83947000D03*
X173990000Y-102616000D03*
X47792000Y-63714000D03*
X41910000Y-81026000D03*
X218694000Y-71374000D03*
X221757000Y-63739000D03*
X237926000Y-63174000D03*
X236220000Y-71882000D03*
X254055000Y-63699000D03*
X251206000Y-71882000D03*
X227076000Y-104394000D03*
X43434000Y-73660000D03*
X45593000Y-80899000D03*
X67310000Y-71628000D03*
X83693000Y-72263000D03*
X70921000Y-63953000D03*
X87050000Y-63428000D03*
X78486000Y-90424000D03*
X83820000Y-100584000D03*
X57658000Y-99060000D03*
X50800000Y-100584000D03*
X45720000Y-108458000D03*
X62048000Y-108530000D03*
X78177000Y-108259000D03*
X138866000Y-64444000D03*
X171251000Y-63699000D03*
X160020000Y-77470000D03*
X159258000Y-85852000D03*
X137490000Y-83998000D03*
X130247000Y-108513000D03*
X139446000Y-103378000D03*
X136906000Y-103378000D03*
X159258000Y-92456000D03*
X145288000Y-72136000D03*
D18*
X135636000Y-105156000D03*
X143002000Y-103886000D03*
D17*
X41910000Y-88392000D03*
X45466000Y-88392000D03*
D18*
X140462000Y-76200000D03*
X152146000Y-74930000D03*
X44958000Y-83058000D03*
X54610000Y-79756000D03*
X154432000Y-75438000D03*
X125222000Y-87376000D03*
X143002000Y-70612000D03*
X124714000Y-82042000D03*
X136906000Y-98552000D03*
X138176000Y-103886000D03*
X155194000Y-83566000D03*
X156718000Y-95758000D03*
X139654000Y-98552000D03*
X155702000Y-103378000D03*
X160274000Y-87884000D03*
X161798000Y-96266000D03*
X159004000Y-86868000D03*
X161036000Y-82804000D03*
X136906000Y-85090000D03*
X146558000Y-87122000D03*
X146812000Y-104140000D03*
X136906000Y-89662000D03*
X129794000Y-89408000D03*
X145542000Y-101346000D03*
X144018000Y-76200000D03*
X150876000Y-89916000D03*
X146304000Y-76708000D03*
X153162000Y-95758000D03*
X149098000Y-100330000D03*
X133096000Y-85344000D03*
X130810000Y-81026000D03*
X137668000Y-68834000D03*
X150114000Y-79248000D03*
X151638000Y-89662000D03*
X153416000Y-98552000D03*
X133858000Y-84836000D03*
X131572000Y-81788000D03*
X124968000Y-76962000D03*
X160487000Y-98511000D03*
X145288000Y-69342000D03*
D17*
X167640000Y-85852000D03*
X168656000Y-72644000D03*
D18*
X234442000Y-80518000D03*
X233172000Y-71882000D03*
X248920000Y-70358000D03*
X251714000Y-80772000D03*
X43434000Y-92456000D03*
X43942000Y-103632000D03*
X57912000Y-92456000D03*
X62992000Y-105918000D03*
X216916000Y-69850000D03*
X218694000Y-80264000D03*
X41402000Y-84582000D03*
X58166000Y-88138000D03*
X40386000Y-90170000D03*
X68580000Y-92202000D03*
X87376000Y-93218000D03*
X78740000Y-94742000D03*
X57150000Y-69342000D03*
X67564000Y-76708000D03*
X67056000Y-101854000D03*
X70612000Y-94742000D03*
X75946000Y-75438000D03*
X90424000Y-71628000D03*
X58166000Y-78994000D03*
X71628000Y-68580000D03*
X57150000Y-73914000D03*
X67564000Y-69342000D03*
X83820000Y-69088000D03*
X73406000Y-77216000D03*
X83820000Y-70612000D03*
X78740000Y-78232000D03*
X87884000Y-103378000D03*
X75946000Y-83058000D03*
X86106000Y-98806000D03*
X70358000Y-93294000D03*
X71120000Y-86360000D03*
X54102000Y-98552000D03*
X55118000Y-90170000D03*
X62738000Y-96520000D03*
X68834000Y-97790000D03*
X83820000Y-78740000D03*
X83566000Y-73660000D03*
D19*
X47792000Y-63714000D02*
X41910000Y-69596000D01*
X41910000Y-69596000D02*
X41910000Y-81026000D01*
D20*
X141732000Y-105156000D02*
X143002000Y-103886000D01*
X135636000Y-105156000D02*
X141732000Y-105156000D01*
D21*
X41910000Y-88392000D02*
X45466000Y-88392000D01*
D20*
X142687601Y-73974399D02*
X151190399Y-73974399D01*
X140462000Y-76200000D02*
X142687601Y-73974399D01*
X151190399Y-73974399D02*
X152146000Y-74930000D01*
X44958000Y-83058000D02*
X48260000Y-79756000D01*
X48260000Y-79756000D02*
X54610000Y-79756000D01*
X130145882Y-87376000D02*
X125222000Y-87376000D01*
X142010881Y-75511001D02*
X130145882Y-87376000D01*
X154036869Y-75438000D02*
X153963868Y-75511001D01*
X153963868Y-75511001D02*
X142010881Y-75511001D01*
X154432000Y-75438000D02*
X154036869Y-75438000D01*
X136144000Y-70612000D02*
X124714000Y-82042000D01*
X143002000Y-70612000D02*
X136144000Y-70612000D01*
D21*
X136906000Y-98552000D02*
X138176000Y-99822000D01*
X138176000Y-99822000D02*
X138176000Y-103886000D01*
X155194000Y-83566000D02*
X155194000Y-94234000D01*
X155194000Y-94234000D02*
X156718000Y-95758000D01*
X139654000Y-98552000D02*
X139654000Y-99014000D01*
X139654000Y-99014000D02*
X147066000Y-106426000D01*
X147066000Y-106426000D02*
X147828000Y-107188000D01*
X147828000Y-107188000D02*
X153162000Y-107188000D01*
X153162000Y-107188000D02*
X155702000Y-104648000D01*
X155702000Y-104648000D02*
X155702000Y-103378000D01*
X159994601Y-88163399D02*
X159994601Y-89890601D01*
X160274000Y-87884000D02*
X159994601Y-88163399D01*
X159994601Y-89890601D02*
X161798000Y-91694000D01*
X161798000Y-91694000D02*
X161798000Y-96266000D01*
X159399131Y-86868000D02*
X161290000Y-84977131D01*
X159004000Y-86868000D02*
X159399131Y-86868000D01*
X161290000Y-84977131D02*
X161290000Y-83312000D01*
X161290000Y-83312000D02*
X161290000Y-83058000D01*
X161290000Y-83058000D02*
X161036000Y-82804000D01*
X136906000Y-85090000D02*
X138938000Y-87122000D01*
X138938000Y-87122000D02*
X146558000Y-87122000D01*
X146812000Y-104140000D02*
X146812000Y-94488000D01*
X146812000Y-94488000D02*
X141986000Y-89662000D01*
X141986000Y-89662000D02*
X136906000Y-89662000D01*
X129794000Y-89408000D02*
X133604000Y-89408000D01*
X133604000Y-89408000D02*
X145542000Y-101346000D01*
D20*
X144018000Y-76200000D02*
X150876000Y-83058000D01*
X150876000Y-83058000D02*
X150876000Y-89916000D01*
X148433882Y-76708000D02*
X152654000Y-80928118D01*
X146304000Y-76708000D02*
X148433882Y-76708000D01*
X152654000Y-80928118D02*
X152654000Y-88900000D01*
X152654000Y-95250000D02*
X153162000Y-95758000D01*
X152654000Y-88900000D02*
X152654000Y-95250000D01*
X146230999Y-99846881D02*
X133096000Y-86711882D01*
X149098000Y-100330000D02*
X149098000Y-102713882D01*
X146230999Y-104418881D02*
X146230999Y-99846881D01*
X149098000Y-102713882D02*
X147090881Y-104721001D01*
X146533119Y-104721001D02*
X146230999Y-104418881D01*
X133096000Y-86711882D02*
X133096000Y-85344000D01*
X147090881Y-104721001D02*
X146533119Y-104721001D01*
X143583001Y-70333119D02*
X142083882Y-68834000D01*
X143583001Y-70890881D02*
X143583001Y-70333119D01*
X142083882Y-68834000D02*
X137668000Y-68834000D01*
X133447882Y-81026000D02*
X143583001Y-70890881D01*
X130810000Y-81026000D02*
X133447882Y-81026000D01*
X150114000Y-79248000D02*
X151638000Y-80772000D01*
X151638000Y-80772000D02*
X151638000Y-89662000D01*
X153416000Y-98552000D02*
X143002000Y-88138000D01*
X137160000Y-88138000D02*
X133858000Y-84836000D01*
X143002000Y-88138000D02*
X137160000Y-88138000D01*
X131572000Y-81788000D02*
X126238000Y-81788000D01*
X124132999Y-77797001D02*
X124968000Y-76962000D01*
X124132999Y-82320881D02*
X124132999Y-77797001D01*
X124435119Y-82623001D02*
X124132999Y-82320881D01*
X125402999Y-82623001D02*
X124435119Y-82623001D01*
X126238000Y-81788000D02*
X125402999Y-82623001D01*
D21*
X163830000Y-71120000D02*
X162052000Y-69342000D01*
X162052000Y-69342000D02*
X145288000Y-69342000D01*
X163830000Y-80010000D02*
X163830000Y-71120000D01*
X165100000Y-96266000D02*
X165100000Y-81280000D01*
X165100000Y-81280000D02*
X163830000Y-80010000D01*
X162855000Y-98511000D02*
X165100000Y-96266000D01*
X160487000Y-98511000D02*
X162855000Y-98511000D01*
X168656000Y-84836000D02*
X168656000Y-72644000D01*
X167640000Y-85852000D02*
X168656000Y-84836000D01*
X234442000Y-80518000D02*
X234442000Y-73152000D01*
X234442000Y-73152000D02*
X233172000Y-71882000D01*
X248920000Y-70358000D02*
X248920000Y-77978000D01*
X248920000Y-77978000D02*
X251714000Y-80772000D01*
X43434000Y-92456000D02*
X43434000Y-103124000D01*
X43434000Y-103124000D02*
X43942000Y-103632000D01*
X56930999Y-93437001D02*
X56930999Y-95030999D01*
X57912000Y-92456000D02*
X56930999Y-93437001D01*
X56930999Y-95030999D02*
X61468000Y-99568000D01*
X61468000Y-99568000D02*
X61468000Y-104394000D01*
X61468000Y-104394000D02*
X62992000Y-105918000D01*
X216916000Y-69850000D02*
X216916000Y-78486000D01*
X216916000Y-78486000D02*
X218694000Y-80264000D01*
D20*
X41402000Y-84582000D02*
X54610000Y-84582000D01*
X54610000Y-84582000D02*
X58166000Y-88138000D01*
X40386000Y-90170000D02*
X53848000Y-90170000D01*
X53848000Y-90170000D02*
X54864000Y-89154000D01*
X54864000Y-89154000D02*
X57912000Y-89154000D01*
X57912000Y-89154000D02*
X65532000Y-89154000D01*
X65532000Y-89154000D02*
X68580000Y-92202000D01*
D21*
X87376000Y-93218000D02*
X80264000Y-93218000D01*
X80264000Y-93218000D02*
X78740000Y-94742000D01*
X57150000Y-69342000D02*
X57150000Y-70612000D01*
X57150000Y-70612000D02*
X56134000Y-71628000D01*
X56134000Y-71628000D02*
X56134000Y-75184000D01*
X56134000Y-75184000D02*
X56134000Y-75438000D01*
X56134000Y-75438000D02*
X56642000Y-75946000D01*
X56642000Y-75946000D02*
X66802000Y-75946000D01*
X66802000Y-75946000D02*
X67564000Y-76708000D01*
X67056000Y-101854000D02*
X67056000Y-100838000D01*
X70612000Y-97282000D02*
X70612000Y-94742000D01*
X67056000Y-100838000D02*
X70612000Y-97282000D01*
X75946000Y-75438000D02*
X75946000Y-79248000D01*
X75946000Y-79248000D02*
X76200000Y-79502000D01*
X76200000Y-79502000D02*
X76962000Y-80264000D01*
X76962000Y-80264000D02*
X87122000Y-80264000D01*
X87122000Y-80264000D02*
X90424000Y-76962000D01*
X90424000Y-76962000D02*
X90424000Y-71882000D01*
X90424000Y-71882000D02*
X90424000Y-71628000D01*
X58166000Y-78994000D02*
X55118000Y-75946000D01*
X55118000Y-75946000D02*
X55118000Y-72136000D01*
X55118000Y-72136000D02*
X55118000Y-68580000D01*
X55118000Y-68580000D02*
X56388000Y-67310000D01*
X56388000Y-67310000D02*
X60198000Y-67310000D01*
X60198000Y-67310000D02*
X70358000Y-67310000D01*
X70358000Y-67310000D02*
X71628000Y-68580000D01*
X57150000Y-73914000D02*
X62992000Y-73914000D01*
X62992000Y-73914000D02*
X67564000Y-69342000D01*
X83820000Y-69088000D02*
X82296000Y-67564000D01*
X82296000Y-67564000D02*
X82042000Y-67310000D01*
X82042000Y-67310000D02*
X73660000Y-67310000D01*
X73660000Y-67310000D02*
X73406000Y-67310000D01*
X73406000Y-67310000D02*
X72898000Y-67818000D01*
X72898000Y-67818000D02*
X72898000Y-76708000D01*
X72898000Y-76708000D02*
X73406000Y-77216000D01*
X83820000Y-70612000D02*
X80772000Y-70612000D01*
X80772000Y-70612000D02*
X78740000Y-72644000D01*
X78740000Y-72644000D02*
X78740000Y-78232000D01*
X88138000Y-96774000D02*
X86106000Y-98806000D01*
X89154000Y-93218000D02*
X88138000Y-94234000D01*
X88392000Y-91440000D02*
X89154000Y-92202000D01*
X86495474Y-91440000D02*
X88392000Y-91440000D01*
X78113474Y-83058000D02*
X86495474Y-91440000D01*
X89154000Y-92202000D02*
X89154000Y-93218000D01*
X88138000Y-94234000D02*
X88138000Y-96774000D01*
X75946000Y-83058000D02*
X78113474Y-83058000D01*
X70358000Y-93294000D02*
X70358000Y-87122000D01*
X70358000Y-87122000D02*
X71120000Y-86360000D01*
X54102000Y-98552000D02*
X54102000Y-91186000D01*
X54102000Y-91186000D02*
X55118000Y-90170000D01*
X62738000Y-96520000D02*
X66802000Y-96520000D01*
X66802000Y-96520000D02*
X67564000Y-96520000D01*
X67564000Y-96520000D02*
X68834000Y-97790000D01*
X83820000Y-78740000D02*
X83820000Y-73914000D01*
X83820000Y-73914000D02*
X83566000Y-73660000D01*
M02*
